<?xml version="1.0"?>
<svg xmlns="http://www.w3.org/2000/svg" width="426" height="263" viewBox="0 0 426 263" fill="none">
<g clip-path="url(#clip0_18014_14727)">
<path fill-rule="evenodd" clip-rule="evenodd" d="M216.07 97.3881C194.171 98.0314 174.174 94.9615 174.174 94.9615L175.009 95.5848L174.174 95.3364C159.677 91.057 130.127 159.801 156.122 171.621C156.122 171.621 179.651 143.559 208.689 143.703C266.779 143.991 284.856 109.777 276.292 110.172C275.273 110.219 273.364 111.831 270.606 114.146C262.48 121.009 246.976 134.093 225.166 131.637C259.005 129.935 283.952 91.3105 276.689 90.5182C273.684 90.1902 270.755 93.4165 266.754 97.8203C259.655 105.644 249.189 117.194 228.929 119.076C219.513 119.956 211.791 119.63 206.006 118.965C205.909 118.776 205.815 118.589 205.716 118.401C249.571 125.974 280.76 78.3724 272.695 77.5107C269.615 77.1827 266.392 80.6152 261.99 85.2947C254.487 93.2799 243.571 104.897 224.145 107.681C222.531 107.914 220.958 108.106 219.426 108.255C250.282 101.486 267.114 71.9122 260.584 71.2217C257.49 70.894 254.169 74.3562 249.85 78.8643C242.622 86.4199 232.578 96.899 216.07 97.3881Z" fill="url(#paint0_linear_18014_14727)"/>
<path d="M257.512 69.8155C257.512 69.8155 261.295 66.9466 260.378 71.4174" stroke="#F8F6EB" stroke-width="2.08423" stroke-miterlimit="10"/>
<path d="M258.997 148.564L257.539 159.861" stroke="black" stroke-width="2.08423" stroke-miterlimit="10"/>
<path d="M169.389 171.117C169.016 173.602 170.907 175.85 173.419 175.908L249.954 177.688C252.077 177.738 253.899 176.185 254.186 174.08L273.677 31.2475C274.02 28.7351 272.061 26.4998 269.525 26.5098L194.59 26.8087C192.53 26.8169 190.784 28.3265 190.479 30.3637L169.389 171.117Z" fill="#4E5B73"/>
<path d="M173.745 161.491C173.369 163.978 175.261 166.23 177.775 166.288L247.416 167.904C249.537 167.953 251.358 166.403 251.647 164.302L269.424 35.3499C269.77 32.836 267.811 30.5971 265.274 30.6065L197.095 30.8609C195.037 30.8688 193.292 32.375 192.984 34.4097L173.745 161.491Z" fill="#F5F5F5"/>
<g opacity="0.5">
<path d="M145.768 86.1259C160.795 86.1259 172.976 74.1238 172.976 59.3183C172.976 44.5129 160.795 32.5107 145.768 32.5107C130.742 32.5107 118.561 44.5129 118.561 59.3183C118.561 74.1238 130.742 86.1259 145.768 86.1259Z" fill="#CCCCCC"/>
<mask id="mask0_18014_14727" style="mask-type:alpha" maskUnits="userSpaceOnUse" x="118" y="32" width="55" height="55">
<path d="M145.768 86.1259C160.795 86.1259 172.976 74.1238 172.976 59.3183C172.976 44.5129 160.795 32.5107 145.768 32.5107C130.742 32.5107 118.561 44.5129 118.561 59.3183C118.561 74.1238 130.742 86.1259 145.768 86.1259Z" fill="#F2F2F2"/>
</mask>
<g mask="url(#mask0_18014_14727)">
<path d="M146.968 62.1182H143.767C134.265 62.1182 126.562 69.821 126.562 79.323C126.562 88.825 134.265 96.5278 143.767 96.5278H146.968C156.47 96.5278 164.173 88.825 164.173 79.323C164.173 69.821 156.47 62.1182 146.968 62.1182Z" fill="white" fill-opacity="0.8"/>
<path d="M145.366 62.1188C151.332 62.1188 156.169 57.2821 156.169 51.3157C156.169 45.3494 151.332 40.5127 145.366 40.5127C139.399 40.5127 134.562 45.3494 134.562 51.3157C134.562 57.2821 139.399 62.1188 145.366 62.1188Z" fill="white" fill-opacity="0.8"/>
</g>
</g>
<path d="M223.591 114.586C241.646 114.586 256.282 99.9495 256.282 81.8949C256.282 63.8403 241.646 49.2041 223.591 49.2041C205.537 49.2041 190.9 63.8403 190.9 81.8949C190.9 99.9495 205.537 114.586 223.591 114.586Z" fill="#CCCCCC"/>
<path d="M209.577 90.4124C209.84 88.3268 211.615 86.7627 213.717 86.7627H234.853C237.366 86.7627 239.308 88.9668 238.993 91.4595C238.729 93.5454 236.955 95.1092 234.853 95.1092H213.717C211.205 95.1092 209.262 92.9054 209.577 90.4124Z" fill="white"/>
<path d="M127.604 200.834H67.7871L119.727 154.664C130.613 144.989 136.534 131.278 141.33 117.526C146.912 101.52 157.401 89.0506 175.785 82.6268C202.113 73.4368 213.225 55.4148 217.614 62.4113C221.201 68.1239 203.599 86.7868 186.031 94.4143C171.656 100.656 188.596 125.966 169.523 135.988V159.101L127.604 200.834Z" fill="url(#paint1_linear_18014_14727)"/>
<path d="M175.105 107.63C175.105 107.63 175.661 131.121 163.078 139.278" stroke="#CF937D" stroke-width="2.08423" stroke-miterlimit="10"/>
<path d="M293.813 140.554C286.584 133.626 279.018 132.62 273.294 133.326C259.708 126.844 262.592 135.411 262.592 135.411C262.592 135.411 250.319 124.907 246.423 134.09C245.934 135.241 246.412 135.601 246.206 136.793C244.375 135.154 242.69 133.358 241.171 131.425C225.812 111.636 227.785 92.1873 220.85 88.4946C214.037 84.877 213.855 135.175 251.105 164.24C251.105 164.24 244.294 161.567 241.488 158.813C228.78 146.331 209.962 143.584 204.802 148.95C198.463 155.547 222.154 154.115 234.769 173.058C249.582 195.298 281.068 195.511 293.073 194.63C296.691 194.365 347.601 226.489 350.611 225.911C375.039 221.223 332.796 175.063 332.796 175.063C332.796 175.063 302.802 149.161 293.813 140.554Z" fill="url(#paint2_linear_18014_14727)"/>
<path d="M236.416 123.987C236.416 123.987 242.861 135.956 253.377 142.446" stroke="#CF937D" stroke-width="2.08423" stroke-miterlimit="10"/>
<path d="M246 134.616C246 134.616 248.368 124.609 262.162 134.745C262.162 134.745 262.666 123.748 280.597 136.882" stroke="#CF937D" stroke-width="2.08423" stroke-miterlimit="10"/>
<path d="M237.221 150.277C237.221 150.277 245.015 160.358 255.988 167.139" stroke="#CF937D" stroke-width="2.08423" stroke-miterlimit="10"/>
<path d="M228.545 122.502C228.545 122.502 230.552 120.018 232.632 121.612" stroke="#CF937D" stroke-width="2.08423" stroke-miterlimit="10"/>
<path d="M211.831 155.032C211.831 155.032 214.525 151.714 210.657 150.747C206.788 149.779 194.541 150.052 209.169 154.57" stroke="#CF937D" stroke-width="2.08423" stroke-miterlimit="10"/>
<g filter="url(#filter0_i_18014_14727)">
<path d="M288.941 0C288.941 0 273.011 16.5659 247.395 16.6123C246.503 16.6139 245.745 17.2654 245.69 18.1565C245.202 26.0093 243.708 61.4754 255.091 78.9831C263.721 92.2574 276.329 96.2394 288.941 107.523" fill="#FF5A7C"/>
<path d="M288.941 0C288.941 0 304.871 16.5659 330.487 16.6123C331.38 16.6139 332.137 17.2654 332.192 18.1565C332.679 26.0093 334.173 61.4754 322.79 78.9831C314.161 92.2574 301.553 96.2394 288.941 107.523" fill="#FF5A7C"/>
</g>
<path d="M272.108 40.4395C271.177 40.4395 270.422 41.1939 270.422 42.125V59.0254C270.422 69.2943 278.745 77.6114 289.008 77.6114C299.271 77.6114 307.594 69.2885 307.594 59.0254V42.125C307.594 41.1939 306.839 40.4395 305.908 40.4395H272.108Z" fill="white"/>
<path d="M292.86 53.9829C292.86 51.7843 291.077 50.001 288.878 50.001C286.68 50.001 284.896 51.7843 284.896 53.9829C284.896 55.1069 285.363 56.1204 286.11 56.8418C286.544 57.2604 286.888 57.798 286.888 58.4011V61.8121C286.888 62.9058 287.785 63.8029 288.878 63.8029C289.972 63.8029 290.87 62.9058 290.87 61.8121V58.3971C290.87 57.7962 291.21 57.2601 291.643 56.8427C292.393 56.1189 292.86 55.1048 292.86 53.9829Z" fill="black"/>
<path d="M300.957 45.4868V35.128C300.957 28.527 295.607 23.1768 289.006 23.1768C282.405 23.1768 277.055 28.527 277.055 35.128V48.5207" stroke="white" stroke-width="3.78817" stroke-miterlimit="10"/>
</g>
<defs>
<filter id="filter0_i_18014_14727" x="245.348" y="0" width="87.1855" height="110.679" filterUnits="userSpaceOnUse" color-interpolation-filters="sRGB">
<feFlood flood-opacity="0" result="BackgroundImageFix"/>
<feBlend mode="normal" in="SourceGraphic" in2="BackgroundImageFix" result="shape"/>
<feColorMatrix in="SourceAlpha" type="matrix" values="0 0 0 0 0 0 0 0 0 0 0 0 0 0 0 0 0 0 127 0" result="hardAlpha"/>
<feOffset dy="3.15681"/>
<feGaussianBlur stdDeviation="2.84113"/>
<feComposite in2="hardAlpha" operator="arithmetic" k2="-1" k3="1"/>
<feColorMatrix type="matrix" values="0 0 0 0 0 0 0 0 0 0 0 0 0 0 0 0 0 0 0.15 0"/>
<feBlend mode="normal" in2="shape" result="effect1_innerShadow_18014_14727"/>
</filter>
<linearGradient id="paint0_linear_18014_14727" x1="278.539" y1="77.7215" x2="166.968" y2="123.191" gradientUnits="userSpaceOnUse">
<stop stop-color="#F5D2BB"/>
<stop offset="1" stop-color="#F5B79B"/>
</linearGradient>
<linearGradient id="paint1_linear_18014_14727" x1="121.345" y1="71.4611" x2="191.455" y2="111.535" gradientUnits="userSpaceOnUse">
<stop stop-color="#F5D2BB"/>
<stop offset="1" stop-color="#F5B79B"/>
</linearGradient>
<linearGradient id="paint2_linear_18014_14727" x1="309.27" y1="204.37" x2="182.845" y2="184.415" gradientUnits="userSpaceOnUse">
<stop stop-color="#F5D2BB"/>
<stop offset="1" stop-color="#F5B79B"/>
</linearGradient>
<clipPath id="clip0_18014_14727">
<rect width="290.427" height="225.989" fill="white" transform="translate(67.7871)"/>
</clipPath>
</defs>
</svg>
