<?xml version="1.0" encoding="UTF-8"?>
<svg xmlns="http://www.w3.org/2000/svg" xmlns:xlink="http://www.w3.org/1999/xlink" width="457.199" height="310.58" viewBox="0 0 457.199 310.58">
  <defs>
    <clipPath id="clip-path">
      <rect id="Rectangle_5941" data-name="Rectangle 5941" width="29.157" height="23.567" fill="none"></rect>
    </clipPath>
    <clipPath id="clip-path-2">
      <rect id="Rectangle_5948" data-name="Rectangle 5948" width="193.815" height="110.926" fill="none"></rect>
    </clipPath>
    <clipPath id="clip-path-3">
      <rect id="Rectangle_5952" data-name="Rectangle 5952" width="38.218" height="6.091" fill="#c4c4c4"></rect>
    </clipPath>
    <clipPath id="clip-path-4">
      <rect id="Rectangle_5955" data-name="Rectangle 5955" width="96.859" height="48.709" fill="none"></rect>
    </clipPath>
  </defs>
  <g id="Group_14392" data-name="Group 14392" transform="translate(-288.801 -439.42)">
    <rect id="Rectangle_597" data-name="Rectangle 597" width="456.806" height="310.548" rx="20" transform="translate(288.801 439.42)" fill="#fff"></rect>
    <path id="Path_20434" data-name="Path 20434" d="M1223.25,1734.072l-.03-.019.03.019" transform="translate(-710.516 -1006.127)" fill="#e2e2ea"></path>
    <path id="Path_20435" data-name="Path 20435" d="M1226.821,1735.927l-.022-.009.022.009" transform="translate(-713.604 -1007.736)" fill="#e2e2ea"></path>
    <path id="Path_20437" data-name="Path 20437" d="M1222.191,1733.386l-.03-.02.03.02" transform="translate(-709.602 -1005.535)" fill="#e2e2ea"></path>
    <path id="Path_20438" data-name="Path 20438" d="M1218.163,1730.026l-.028-.028.028.028" transform="translate(-706.128 -1002.629)" fill="#e2e2ea"></path>
    <path id="Path_20439" data-name="Path 20439" d="M1219.092,1730.922l-.022-.021.022.021" transform="translate(-706.935 -1003.408)" fill="#e2e2ea"></path>
    <path id="Path_20440" data-name="Path 20440" d="M1221.177,1732.661l-.014-.01.014.01" transform="translate(-708.741 -1004.917)" fill="#e2e2ea"></path>
    <path id="Path_20441" data-name="Path 20441" d="M1235.922,1738.05h0" transform="translate(-721.464 -1009.575)" fill="#e2e2ea"></path>
    <path id="Path_20442" data-name="Path 20442" d="M1229.239,1736.826l-.024-.008.024.008" transform="translate(-715.688 -1008.513)" fill="#e2e2ea"></path>
    <path id="Path_20444" data-name="Path 20444" d="M1234.517,1737.935l-.03,0,.03,0" transform="translate(-720.236 -1009.474)" fill="#e2e2ea"></path>
    <path id="Path_20445" data-name="Path 20445" d="M1233.209,1737.764l-.026,0,.026,0" transform="translate(-719.111 -1009.326)" fill="#e2e2ea"></path>
    <path id="Path_20446" data-name="Path 20446" d="M1228,1736.4l-.031-.012.031.012" transform="translate(-714.61 -1008.14)" fill="#e2e2ea"></path>
    <path id="Path_20447" data-name="Path 20447" d="M1210.826,1716.264l-.009-.043.009.043" transform="translate(-699.814 -990.742)" fill="#e2e2ea"></path>
    <path id="Path_20448" data-name="Path 20448" d="M1210.607,1715.026c0-.013,0-.026-.006-.039,0,.013,0,.026.006.039" transform="translate(-699.628 -989.677)" fill="#e2e2ea"></path>
    <path id="Path_20449" data-name="Path 20449" d="M1224.413,1734.752l.012.007-.012-.007" transform="translate(-711.545 -1006.73)" fill="#e2e2ea"></path>
    <path id="Path_20450" data-name="Path 20450" d="M1211.48,1718.865l.015.047-.015-.047" transform="translate(-700.386 -993.023)" fill="#e2e2ea"></path>
    <path id="Path_20451" data-name="Path 20451" d="M1210.426,1713.518c0-.016,0-.031,0-.047,0,.016,0,.032,0,.047" transform="translate(-699.474 -988.369)" fill="#e2e2ea"></path>
    <path id="Path_20452" data-name="Path 20452" d="M1210.336,1712.217c0-.02,0-.04,0-.06,0,.02,0,.04,0,.06" transform="translate(-699.396 -987.235)" fill="#e2e2ea"></path>
    <path id="Path_20453" data-name="Path 20453" d="M1215.65,1727.1l-.007-.01.007.01" transform="translate(-703.978 -1000.123)" fill="#e2e2ea"></path>
    <path id="Path_20454" data-name="Path 20454" d="M1214.854,1725.973l-.021-.032.021.032" transform="translate(-703.279 -999.128)" fill="#e2e2ea"></path>
    <path id="Path_20455" data-name="Path 20455" d="M1217.307,1729.124l-.023-.025.023.025" transform="translate(-705.394 -1001.853)" fill="#e2e2ea"></path>
    <path id="Path_20456" data-name="Path 20456" d="M1214.177,1724.9l-.022-.036.022.036" transform="translate(-702.694 -998.203)" fill="#e2e2ea"></path>
    <path id="Path_20457" data-name="Path 20457" d="M1211.9,1720.113l-.016-.046.016.046" transform="translate(-700.731 -994.061)" fill="#e2e2ea"></path>
    <path id="Path_20458" data-name="Path 20458" d="M1213.557,1723.824l-.015-.027.015.027" transform="translate(-702.166 -997.279)" fill="#e2e2ea"></path>
    <path id="Path_20459" data-name="Path 20459" d="M1212.373,1721.343l-.013-.032.013.032" transform="translate(-701.146 -995.134)" fill="#e2e2ea"></path>
    <path id="Path_20466" data-name="Path 20466" d="M1400.723,1727.312h0a3.688,3.688,0,0,0-.075-.747A3.688,3.688,0,0,1,1400.723,1727.312Z" transform="translate(-863.599 -999.667)" fill="#e2e2ea"></path>
    <path id="Path_20468" data-name="Path 20468" d="M1400.073,1724.329a3.607,3.607,0,0,0-.092-.356,3.607,3.607,0,0,1,.092.356" transform="translate(-863.023 -997.43)" fill="#e2e2ea"></path>
    <path id="Path_20469" data-name="Path 20469" d="M1266.235,1718.766l-.023.042.023-.042" transform="translate(-747.609 -992.938)" fill="#e2e2ea"></path>
    <path id="Path_20470" data-name="Path 20470" d="M1266.841,1717.646l.032-.052-.032.052" transform="translate(-748.151 -991.927)" fill="#e2e2ea"></path>
    <path id="Path_20471" data-name="Path 20471" d="M1268.265,1715.518l-.038.051.021-.028.018-.023" transform="translate(-749.347 -990.135)" fill="#e2e2ea"></path>
    <path id="Path_20472" data-name="Path 20472" d="M1267.578,1716.437l-.041.06.02-.029.022-.031" transform="translate(-748.751 -990.928)" fill="#e2e2ea"></path>
    <path id="Path_20473" data-name="Path 20473" d="M1269.15,1714.477l-.03.036.016-.019.014-.017" transform="translate(-750.118 -989.237)" fill="#e2e2ea"></path>
    <path id="Path_20474" data-name="Path 20474" d="M1270.745,1712.039c.047-.049.1-.1.146-.142-.05.046-.1.093-.146.142" transform="translate(-751.52 -987.011)" fill="#e2e2ea"></path>
    <path id="Path_20475" data-name="Path 20475" d="M1270.008,1713.6l-.015.016.01-.011.005-.006" transform="translate(-750.871 -988.483)" fill="#e2e2ea"></path>
    <path id="Path_20476" data-name="Path 20476" d="M1263.784,1724.62c.009-.038.02-.076.031-.113-.011.038-.021.075-.031.113" transform="translate(-745.514 -997.891)" fill="#e2e2ea"></path>
    <path id="Path_20477" data-name="Path 20477" d="M1263.468,1726.06c.007-.038.015-.076.024-.113-.009.038-.016.075-.024.113" transform="translate(-745.241 -999.134)" fill="#e2e2ea"></path>
    <path id="Path_20478" data-name="Path 20478" d="M1264.17,1723.1c.014-.045.029-.09.045-.134-.016.044-.031.089-.045.134" transform="translate(-745.847 -996.56)" fill="#e2e2ea"></path>
    <path id="Path_20479" data-name="Path 20479" d="M1264.624,1721.428q.034-.093.073-.184-.039.091-.073.184" transform="translate(-746.238 -995.076)" fill="#e2e2ea"></path>
    <path id="Path_20480" data-name="Path 20480" d="M1265.241,1720.069c.023-.053.048-.106.074-.158-.026.052-.05.1-.074.158" transform="translate(-746.771 -993.926)" fill="#e2e2ea"></path>
    <path id="Path_20481" data-name="Path 20481" d="M1262.977,1730.518c0-.07,0-.14.006-.209,0,.069-.006.139-.007.209,0,.01,0,.02,0,.029,0-.01,0-.02,0-.029" transform="translate(-744.817 -1002.897)" fill="#e2e2ea"></path>
    <path id="Path_20486" data-name="Path 20486" d="M1263.225,1727.506c.005-.041.011-.081.018-.122-.007.04-.013.081-.018.122" transform="translate(-745.032 -1000.374)" fill="#e2e2ea"></path>
    <path id="Path_20496" data-name="Path 20496" d="M1271.819,1711.629l.047-.041-.047.041" transform="translate(-752.446 -986.745)" fill="#e2e2ea"></path>
    <path id="Path_20497" data-name="Path 20497" d="M1275.924,1754.943l-.03-.018.03.018" transform="translate(-755.962 -1024.136)" fill="#e2e2ea"></path>
    <path id="Path_20498" data-name="Path 20498" d="M1279.494,1756.8l-.022-.009.022.009" transform="translate(-759.049 -1025.744)" fill="#e2e2ea"></path>
    <path id="Path_20499" data-name="Path 20499" d="M1263.058,1728.98c0-.048.008-.1.013-.144-.005.048-.009.1-.013.144" transform="translate(-744.887 -1001.626)" fill="#e2e2ea"></path>
    <path id="Path_20500" data-name="Path 20500" d="M1274.865,1754.256l-.03-.02.03.02" transform="translate(-755.048 -1023.541)" fill="#e2e2ea"></path>
    <path id="Path_20501" data-name="Path 20501" d="M1270.836,1750.9l-.028-.028.028.028" transform="translate(-751.574 -1020.635)" fill="#e2e2ea"></path>
    <path id="Path_20502" data-name="Path 20502" d="M1271.765,1751.792l-.022-.021.022.021" transform="translate(-752.381 -1021.415)" fill="#e2e2ea"></path>
    <path id="Path_20503" data-name="Path 20503" d="M1273.851,1753.531l-.014-.01.014.01" transform="translate(-754.188 -1022.924)" fill="#e2e2ea"></path>
    <path id="Path_20504" data-name="Path 20504" d="M1288.595,1758.921h0" transform="translate(-766.909 -1027.583)" fill="#e2e2ea"></path>
    <path id="Path_20505" data-name="Path 20505" d="M1281.913,1757.7l-.024-.008.024.008" transform="translate(-761.135 -1026.52)" fill="#e2e2ea"></path>
    <path id="Path_20507" data-name="Path 20507" d="M1287.19,1758.806l-.03,0,.03,0" transform="translate(-765.683 -1027.481)" fill="#e2e2ea"></path>
    <path id="Path_20508" data-name="Path 20508" d="M1285.882,1758.634l-.026,0,.026,0" transform="translate(-764.557 -1027.332)" fill="#e2e2ea"></path>
    <path id="Path_20509" data-name="Path 20509" d="M1280.671,1757.267l-.031-.011.031.011" transform="translate(-760.057 -1026.146)" fill="#e2e2ea"></path>
    <path id="Path_20510" data-name="Path 20510" d="M1263.5,1737.135c0-.014-.006-.029-.009-.043,0,.014.006.029.009.043" transform="translate(-745.26 -1008.75)" fill="#e2e2ea"></path>
    <path id="Path_20511" data-name="Path 20511" d="M1263.281,1735.9c0-.013,0-.026-.006-.039,0,.013,0,.026.006.039" transform="translate(-745.075 -1007.685)" fill="#e2e2ea"></path>
    <path id="Path_20512" data-name="Path 20512" d="M1277.087,1755.623l.012.007-.012-.007" transform="translate(-756.992 -1024.738)" fill="#e2e2ea"></path>
    <path id="Path_20513" data-name="Path 20513" d="M1264.153,1739.735l.015.047-.015-.047" transform="translate(-745.832 -1011.029)" fill="#e2e2ea"></path>
    <path id="Path_20514" data-name="Path 20514" d="M1263.1,1734.388c0-.016,0-.032,0-.047,0,.016,0,.031,0,.047" transform="translate(-744.919 -1006.376)" fill="#e2e2ea"></path>
    <path id="Path_20515" data-name="Path 20515" d="M1263.009,1733.088c0-.02,0-.04,0-.06,0,.02,0,.04,0,.06" transform="translate(-744.843 -1005.243)" fill="#e2e2ea"></path>
    <path id="Path_20516" data-name="Path 20516" d="M1268.323,1747.974l-.007-.01.007.01" transform="translate(-749.424 -1018.129)" fill="#e2e2ea"></path>
    <path id="Path_20517" data-name="Path 20517" d="M1267.528,1746.844l-.021-.032.021.032" transform="translate(-748.726 -1017.136)" fill="#e2e2ea"></path>
    <path id="Path_20518" data-name="Path 20518" d="M1269.982,1749.994l-.023-.025.023.025" transform="translate(-750.841 -1019.859)" fill="#e2e2ea"></path>
    <path id="Path_20519" data-name="Path 20519" d="M1266.85,1745.775l-.022-.036.022.036" transform="translate(-748.14 -1016.21)" fill="#e2e2ea"></path>
    <path id="Path_20520" data-name="Path 20520" d="M1264.57,1740.983l-.017-.046.017.046" transform="translate(-746.177 -1012.067)" fill="#e2e2ea"></path>
    <path id="Path_20521" data-name="Path 20521" d="M1266.23,1744.7l-.015-.027.015.027" transform="translate(-747.611 -1015.286)" fill="#e2e2ea"></path>
    <path id="Path_20522" data-name="Path 20522" d="M1265.047,1742.213l-.013-.032.013.032" transform="translate(-746.592 -1013.14)" fill="#e2e2ea"></path>
    <path id="Path_20529" data-name="Path 20529" d="M1890.393,1722.852h0a3.714,3.714,0,0,0-.075-.747A3.714,3.714,0,0,1,1890.393,1722.852Z" transform="translate(-1286.082 -995.818)" fill="#e2e2ea"></path>
    <path id="Path_20531" data-name="Path 20531" d="M1889.743,1719.869a3.642,3.642,0,0,0-.092-.356,3.642,3.642,0,0,1,.092.356" transform="translate(-1285.507 -993.582)" fill="#e2e2ea"></path>
    <path id="Path_20532" data-name="Path 20532" d="M1755.906,1714.307l-.023.042.023-.042" transform="translate(-1170.093 -989.091)" fill="#e2e2ea"></path>
    <path id="Path_20533" data-name="Path 20533" d="M1756.511,1713.186l.032-.052-.032.052" transform="translate(-1170.635 -988.079)" fill="#e2e2ea"></path>
    <path id="Path_20535" data-name="Path 20535" d="M1757.248,1711.978l-.041.06.02-.029.022-.031" transform="translate(-1171.235 -987.081)" fill="#e2e2ea"></path>
    <path id="Path_20539" data-name="Path 20539" d="M1753.454,1720.161c.009-.038.02-.076.031-.113-.011.038-.021.075-.031.113" transform="translate(-1167.997 -994.044)" fill="#e2e2ea"></path>
    <path id="Path_20540" data-name="Path 20540" d="M1753.138,1721.6q.011-.057.024-.113-.013.056-.024.113" transform="translate(-1167.725 -995.286)" fill="#e2e2ea"></path>
    <path id="Path_20541" data-name="Path 20541" d="M1753.84,1718.638c.014-.045.029-.09.045-.134-.016.044-.031.089-.045.134" transform="translate(-1168.33 -992.712)" fill="#e2e2ea"></path>
    <path id="Path_20542" data-name="Path 20542" d="M1754.3,1716.968c.023-.062.047-.124.073-.184-.026.061-.05.122-.073.184" transform="translate(-1168.723 -991.228)" fill="#e2e2ea"></path>
    <path id="Path_20543" data-name="Path 20543" d="M1754.912,1715.609c.023-.053.048-.106.074-.158-.026.052-.05.1-.074.158" transform="translate(-1169.255 -990.078)" fill="#e2e2ea"></path>
    <path id="Path_20544" data-name="Path 20544" d="M1752.647,1726.058c0-.07,0-.14.006-.208,0,.069-.006.138-.007.208,0,.01,0,.02,0,.03,0-.01,0-.02,0-.03" transform="translate(-1167.301 -999.049)" fill="#e2e2ea"></path>
    <path id="Path_20549" data-name="Path 20549" d="M1752.9,1723.046c.006-.041.011-.081.018-.121-.007.04-.012.081-.018.121" transform="translate(-1167.515 -996.525)" fill="#e2e2ea"></path>
    <path id="Path_20560" data-name="Path 20560" d="M1765.594,1750.483l-.03-.018.03.018" transform="translate(-1178.445 -1020.288)" fill="#e2e2ea"></path>
    <path id="Path_20561" data-name="Path 20561" d="M1769.165,1752.338l-.022-.009.022.009" transform="translate(-1181.534 -1021.896)" fill="#e2e2ea"></path>
    <path id="Path_20562" data-name="Path 20562" d="M1752.728,1724.521c0-.048.008-.1.013-.144-.005.048-.009.1-.013.144" transform="translate(-1167.371 -997.779)" fill="#e2e2ea"></path>
    <path id="Path_20563" data-name="Path 20563" d="M1764.535,1749.8l-.03-.02.03.02" transform="translate(-1177.532 -1019.693)" fill="#e2e2ea"></path>
    <path id="Path_20564" data-name="Path 20564" d="M1760.507,1746.437l-.028-.028.028.028" transform="translate(-1174.059 -1016.788)" fill="#e2e2ea"></path>
    <path id="Path_20565" data-name="Path 20565" d="M1761.436,1747.333l-.022-.021.022.021" transform="translate(-1174.865 -1017.567)" fill="#e2e2ea"></path>
    <path id="Path_20566" data-name="Path 20566" d="M1763.521,1749.072l-.014-.01.014.01" transform="translate(-1176.671 -1019.076)" fill="#e2e2ea"></path>
    <path id="Path_20567" data-name="Path 20567" d="M1778.266,1754.461h0" transform="translate(-1189.394 -1023.734)" fill="#e2e2ea"></path>
    <path id="Path_20568" data-name="Path 20568" d="M1771.583,1753.237l-.024-.008.024.008" transform="translate(-1183.618 -1022.672)" fill="#e2e2ea"></path>
    <path id="Path_20570" data-name="Path 20570" d="M1776.861,1754.346l-.03,0,.03,0" transform="translate(-1188.167 -1023.633)" fill="#e2e2ea"></path>
    <path id="Path_20571" data-name="Path 20571" d="M1775.553,1754.175l-.026,0,.026,0" transform="translate(-1187.042 -1023.485)" fill="#e2e2ea"></path>
    <path id="Path_20572" data-name="Path 20572" d="M1770.341,1752.808l-.031-.011.031.011" transform="translate(-1182.541 -1022.299)" fill="#e2e2ea"></path>
    <path id="Path_20573" data-name="Path 20573" d="M1753.17,1732.675l-.009-.043.009.043" transform="translate(-1167.745 -1004.901)" fill="#e2e2ea"></path>
    <path id="Path_20574" data-name="Path 20574" d="M1752.951,1731.437c0-.013,0-.026-.006-.039,0,.013,0,.026.006.039" transform="translate(-1167.558 -1003.836)" fill="#e2e2ea"></path>
    <path id="Path_20575" data-name="Path 20575" d="M1766.757,1751.163l.012.007-.012-.007" transform="translate(-1179.475 -1020.89)" fill="#e2e2ea"></path>
    <path id="Path_20576" data-name="Path 20576" d="M1753.824,1735.276l.015.047-.015-.047" transform="translate(-1168.316 -1007.183)" fill="#e2e2ea"></path>
    <path id="Path_20577" data-name="Path 20577" d="M1752.77,1729.928c0-.016,0-.031,0-.047,0,.016,0,.032,0,.047" transform="translate(-1167.403 -1002.527)" fill="#e2e2ea"></path>
    <path id="Path_20578" data-name="Path 20578" d="M1752.68,1728.628c0-.02,0-.04,0-.06,0,.02,0,.04,0,.06" transform="translate(-1167.327 -1001.395)" fill="#e2e2ea"></path>
    <path id="Path_20579" data-name="Path 20579" d="M1757.994,1743.515l-.007-.01.007.01" transform="translate(-1171.908 -1014.283)" fill="#e2e2ea"></path>
    <path id="Path_20580" data-name="Path 20580" d="M1757.2,1742.384l-.021-.032.021.032" transform="translate(-1171.209 -1013.288)" fill="#e2e2ea"></path>
    <path id="Path_20581" data-name="Path 20581" d="M1759.652,1745.534l-.023-.025.023.025" transform="translate(-1173.325 -1016.012)" fill="#e2e2ea"></path>
    <path id="Path_20582" data-name="Path 20582" d="M1756.521,1741.315l-.022-.036.022.036" transform="translate(-1170.625 -1012.362)" fill="#e2e2ea"></path>
    <path id="Path_20583" data-name="Path 20583" d="M1754.24,1736.524l-.017-.046.017.046" transform="translate(-1168.661 -1008.22)" fill="#e2e2ea"></path>
    <path id="Path_20584" data-name="Path 20584" d="M1755.9,1740.235l-.015-.027.015.027" transform="translate(-1170.096 -1011.438)" fill="#e2e2ea"></path>
    <path id="Path_20585" data-name="Path 20585" d="M1754.718,1737.754l-.013-.032.013.032" transform="translate(-1169.077 -1009.293)" fill="#e2e2ea"></path>
    <rect id="Rectangle_5980" data-name="Rectangle 5980" width="457" height="83" rx="20" transform="translate(289 667)" fill="#e0e0e0"></rect>
    <path id="Path_20250" data-name="Path 20250" d="M1270.085,328.837c1.446-.423,16.019-9.7,18.792-19.752.493-1.785,2.034-7.368-1.409-11.275a10.246,10.246,0,0,0-12.685-1.879c-4.41,2.726-4.682,8-4.7,8.457-.016-.455-.289-5.73-4.7-8.457a10.246,10.246,0,0,0-12.685,1.879c-3.444,3.907-1.9,9.49-1.409,11.275,2.773,10.047,17.346,19.329,18.792,19.752" transform="translate(-734.07 235.893)" fill="#c4c4c4"></path>
    <path id="Path_20251" data-name="Path 20251" d="M1279.317,377.884l.431-1.035.625,3.928a.659.659,0,0,0,.657.561h.018a.66.66,0,0,0,.645-.595l.753-7.048.857,13.212a.706.706,0,0,0,.658.676h.006a.708.708,0,0,0,.663-.664l.659-7.956.162.871a.656.656,0,0,0,.63.539.663.663,0,0,0,.669-.5l.46-1.76.226,1a.666.666,0,0,0,1.276.078l.409-1.138c1.154-.016,6.833-.049,11.449-.074q.263-.469.5-.942c-5.061.027-11.695.065-12.164.081a.663.663,0,0,0-.6.44l-.155.432-.266-1.178a.664.664,0,0,0-.638-.519.672.672,0,0,0-.655.5l-.432,1.652-.311-1.7a.666.666,0,0,0-1.319.065l-.524,6.3-.824-12.652a.666.666,0,0,0-1.327-.028l-.873,8.167-.454-2.849a.666.666,0,0,0-1.272-.151l-.732,1.758c-.79,0-4.027.01-7.229.026-2.153.011-3.869.023-5.1.037l-.2,0q.246.47.519.934c3.089-.031,8.327-.052,12.192-.06a.664.664,0,0,0,.615-.41" transform="translate(-747.419 170.91)" fill="#f5f5f5"></path>
    <path id="Path_20253" data-name="Path 20253" d="M1833.889,99.265a1.932,1.932,0,0,1-2.586-.626,34.816,34.816,0,0,0-3.888-5.014,50.713,50.713,0,0,0-4.729-4.33c-1.427-1.2-2.162-1.729-2.81-2.2-.567-.411-1.1-.8-1.908-1.5a25.023,25.023,0,0,1-7.032-8.838,19.661,19.661,0,0,1-1.8-9.724,20.779,20.779,0,0,1,4-10.313,30.591,30.591,0,0,1,7.19-7.417c.626-.465,1.156-.822,1.669-1.167a24.42,24.42,0,0,0,2.9-2.2,29.945,29.945,0,0,0,3.642-3.834c2.208-2.781,4.292-5.408,4.911-9.306a15.228,15.228,0,0,0-.735-7.435,19.557,19.557,0,0,0-5.257-7.633,12.082,12.082,0,0,0-1.672-1.433c-.8-.6-2.13-1.609-4.935-3.959a44.088,44.088,0,0,1-5.741-5.331,30.177,30.177,0,0,1-2.927-4.082A1.938,1.938,0,0,1,1815.5.935a26.325,26.325,0,0,0,2.553,3.561,40.279,40.279,0,0,0,5.281,4.874c2.73,2.288,3.965,3.221,4.782,3.838A15.885,15.885,0,0,1,1830.2,15a23.155,23.155,0,0,1,6.174,9.105,19.145,19.145,0,0,1,.9,9.3c-.779,4.9-3.4,8.2-5.7,11.106a33.9,33.9,0,0,1-4.114,4.331,28.4,28.4,0,0,1-3.3,2.509c-.477.321-.969.652-1.523,1.064a26.671,26.671,0,0,0-6.281,6.463A17.1,17.1,0,0,0,1813,67.348a15.675,15.675,0,0,0,1.47,7.831,21.282,21.282,0,0,0,6.031,7.492c.679.587,1.105.9,1.646,1.287.666.482,1.495,1.083,3.026,2.367a54.518,54.518,0,0,1,5.068,4.651,38.663,38.663,0,0,1,4.308,5.55A1.943,1.943,0,0,1,1833.889,99.265Z" transform="translate(-1215.992 490)" fill="#2ea70d"></path>
    <path id="Path_20254" data-name="Path 20254" d="M1866.242,129.682h-14.5v-2.261h14.5a1.131,1.131,0,1,1,0,2.261" transform="translate(-1252.797 380.062)" fill="#2ea70d"></path>
    <path id="Path_20255" data-name="Path 20255" d="M1842.583,239.769h-24.014v-2.261h24.014a1.131,1.131,0,1,1,0,2.261" transform="translate(-1224.178 285.08)" fill="#2ea70d"></path>
    <path id="Path_20256" data-name="Path 20256" d="M1864.311,293.327h-16.926v-2.261h16.926a1.135,1.135,0,1,1,0,2.261" transform="translate(-1249.04 238.871)" fill="#2ea70d"></path>
    <path id="Path_20257" data-name="Path 20257" d="M1845.687,184.725h-23.56v-2.261h23.56a1.13,1.13,0,1,1,0,2.261" transform="translate(-1227.248 332.571)" fill="#2ea70d"></path>
    <path id="Path_20258" data-name="Path 20258" d="M1868.263,410.852h-13.079a1.13,1.13,0,0,1,0-2.261h13.079a1.13,1.13,0,0,1,0,2.261" transform="translate(-1254.794 137.471)" fill="#2ea70d"></path>
    <path id="Path_20259" data-name="Path 20259" d="M1845.326,520.939h-23.312a1.13,1.13,0,1,1,0-2.261h23.312Z" transform="translate(-1226.175 42.489)" fill="#2ea70d"></path>
    <path id="Path_20260" data-name="Path 20260" d="M1866.236,574.5h-15.4a1.13,1.13,0,1,1,0-2.261h15.4Z" transform="translate(-1251.04 -3.721)" fill="#2ea70d"></path>
    <path id="Path_20261" data-name="Path 20261" d="M1848,465.9h-22.429a1.13,1.13,0,1,1,0-2.261H1848a1.13,1.13,0,0,1,0,2.261" transform="translate(-1229.245 89.979)" fill="#2ea70d"></path>
    <path id="Path_20262" data-name="Path 20262" d="M1811.622,99.265h0a1.943,1.943,0,0,1-.663-2.739,38.681,38.681,0,0,1,4.308-5.55,54.459,54.459,0,0,1,5.069-4.651c1.531-1.285,2.36-1.885,3.026-2.367.54-.391.967-.7,1.646-1.287a21.285,21.285,0,0,0,6.031-7.492,15.67,15.67,0,0,0,1.47-7.831,17.1,17.1,0,0,0-3.352-8.465,26.661,26.661,0,0,0-6.281-6.463c-.554-.411-1.046-.743-1.523-1.063a28.373,28.373,0,0,1-3.3-2.509,33.869,33.869,0,0,1-4.115-4.331c-2.308-2.908-4.924-6.2-5.7-11.106a19.141,19.141,0,0,1,.9-9.3A23.158,23.158,0,0,1,1815.307,15a15.91,15.91,0,0,1,2.084-1.792c.817-.618,2.052-1.551,4.782-3.838a40.242,40.242,0,0,0,5.281-4.874,26.326,26.326,0,0,0,2.553-3.561,1.938,1.938,0,0,1,3.323,1.993A30.169,30.169,0,0,1,1830.4,7.01a44.07,44.07,0,0,1-5.741,5.331c-2.8,2.35-4.138,3.357-4.934,3.959a12.106,12.106,0,0,0-1.672,1.433,19.558,19.558,0,0,0-5.257,7.633,15.226,15.226,0,0,0-.735,7.435c.619,3.9,2.7,6.525,4.911,9.306a29.966,29.966,0,0,0,3.642,3.834,24.4,24.4,0,0,0,2.9,2.2c.512.345,1.043.7,1.668,1.167a30.57,30.57,0,0,1,7.19,7.417,20.78,20.78,0,0,1,4,10.314,19.648,19.648,0,0,1-1.8,9.724,25.028,25.028,0,0,1-7.03,8.836c-.807.7-1.343,1.087-1.91,1.5-.648.47-1.383,1-2.81,2.2a50.639,50.639,0,0,0-4.73,4.33,34.816,34.816,0,0,0-3.888,5.014,1.932,1.932,0,0,1-2.586.626" transform="translate(-1215.07 490)" fill="#217909"></path>
    <path id="Path_20265" data-name="Path 20265" d="M2359.576,966.8h0a1.181,1.181,0,0,1,.443-1.611l8.394-4.773a1.181,1.181,0,1,1,1.168,2.054l-8.394,4.773a1.181,1.181,0,0,1-1.61-.443" transform="translate(-1690.821 -338.508)" fill="#63d6b4"></path>
    <path id="Path_20266" data-name="Path 20266" d="M2508.683,1232.823h0a1.181,1.181,0,0,1,.443-1.611l8.394-4.773a1.181,1.181,0,1,1,1.168,2.054l-8.394,4.773a1.181,1.181,0,0,1-1.61-.443" transform="translate(-1819.469 -568.029)" fill="#63d6b4"></path>
    <path id="Path_20267" data-name="Path 20267" d="M2481.59,1008.477h0a1.181,1.181,0,0,1-1.181-1.181v-9.638a1.181,1.181,0,1,1,2.362,0v9.638a1.181,1.181,0,0,1-1.181,1.181" transform="translate(-1795.208 -369.752)" fill="#63d6b4"></path>
    <path id="Path_20268" data-name="Path 20268" d="M2443.022,1164.313h0a1.181,1.181,0,0,1-1.181-1.181V1153.3a1.181,1.181,0,0,1,2.362,0v9.827a1.181,1.181,0,0,1-1.181,1.181" transform="translate(-1761.933 -504.043)" fill="#63d6b4"></path>
    <path id="Path_20269" data-name="Path 20269" d="M2308.584,900.481l-10.623-6.063a1.179,1.179,0,0,1-.594-1.024V881.212a1.179,1.179,0,0,1,.577-1.013l8.643-5.138a1.179,1.179,0,0,0,.41-1.618l-.005-.009a1.179,1.179,0,0,0-1.614-.409l-8.844,5.247a1.179,1.179,0,0,1-1.184.011l-9.481-5.389a1.179,1.179,0,0,1-.6-1.025v-8.509a1.179,1.179,0,0,0-1.179-1.179h0a1.179,1.179,0,0,0-1.179,1.179V872.1a1.179,1.179,0,0,1-.595,1.024l-10.433,5.946a1.179,1.179,0,0,0-.595,1.024v13.329a1.179,1.179,0,0,1-.578,1.014l-8.772,5.2a1.179,1.179,0,1,0,1.2,2.027l8.94-5.312a1.179,1.179,0,0,1,1.186-.011l9.238,5.259a1.179,1.179,0,0,1,.6,1.025v11.49a1.178,1.178,0,0,1-.577,1.013l-8.748,5.2a1.179,1.179,0,0,0-.411,1.617l0,.006a1.179,1.179,0,0,0,1.614.41l8.344-4.951a1.179,1.179,0,0,1,1.184-.011l9.805,5.575a1.179,1.179,0,0,1,.6,1.025v7.777a1.179,1.179,0,0,0,1.179,1.179h0a1.179,1.179,0,0,0,1.179-1.179v-7.707a1.179,1.179,0,0,1,.6-1.025l10.715-6.1a1.179,1.179,0,0,0,.6-1.025V901.5a1.179,1.179,0,0,0-.594-1.024" transform="translate(-1606.213 -253.882)" fill="#c4c4c4"></path>
    <path id="Path_20270" data-name="Path 20270" d="M2351.529,960.4l9.5-5.4a1.179,1.179,0,0,1,1.165,0l9.5,5.4a1.179,1.179,0,0,1,.6,1.025v11.668a1.179,1.179,0,0,1-.6,1.025l-9.5,5.4a1.179,1.179,0,0,1-1.165,0l-9.5-5.4a1.18,1.18,0,0,1-.6-1.025V961.426a1.18,1.18,0,0,1,.6-1.025" transform="translate(-1683.498 -333.835)" fill="#f5f5f5"></path>
    <path id="Path_20271" data-name="Path 20271" d="M2457.781,1130.134l-9.5,5.4a1.179,1.179,0,0,1-1.166,0l-9.5-5.4a1.179,1.179,0,0,1-.6-1.025v-11.668a1.179,1.179,0,0,1,.6-1.025l9.5-5.4a1.18,1.18,0,0,1,1.166,0l9.5,5.4a1.179,1.179,0,0,1,.6,1.025v11.668a1.179,1.179,0,0,1-.6,1.025" transform="translate(-1757.773 -468.443)" fill="#f5f5f5"></path>
    <path id="Path_20272" data-name="Path 20272" d="M2392.933,809.169h-9.6a1.342,1.342,0,0,1-1.338-1.338v-1.858a1.342,1.342,0,0,1,1.338-1.338h9.6a1.342,1.342,0,0,1,1.338,1.338v1.858a1.342,1.342,0,0,1-1.338,1.338" transform="translate(-1710.296 -204.233)" fill="#ccc" stroke="rgba(0,0,0,0)" stroke-width="1" style="mix-blend-mode: multiply;isolation: isolate"></path>
    <path id="Path_20273" data-name="Path 20273" d="M2625.851,903.416h-9.216a1.535,1.535,0,0,1-1.531-1.531v-1.472a1.535,1.535,0,0,1,1.531-1.531h9.216a1.535,1.535,0,0,1,1.531,1.531v1.472a1.535,1.535,0,0,1-1.531,1.531" transform="translate(-1911.422 -285.549)" fill="#ccc" stroke="rgba(0,0,0,0)" stroke-width="1" style="mix-blend-mode: multiply;isolation: isolate"></path>
    <path id="Path_20274" data-name="Path 20274" d="M2621.933,952.6h-4.562a2.267,2.267,0,0,1,0-4.533h4.562a2.267,2.267,0,0,1,0,4.533" transform="translate(-1911.422 -327.984)" fill="#ccc" stroke="rgba(0,0,0,0)" stroke-width="1" style="mix-blend-mode: multiply;isolation: isolate"></path>
    <path id="Path_20275" data-name="Path 20275" d="M2296.545,1321.5h-4.562a2.267,2.267,0,0,1,0-4.533h4.562a2.267,2.267,0,1,1,0,4.533" transform="translate(-1630.681 -646.271)" fill="#ccc" stroke="rgba(0,0,0,0)" stroke-width="1" style="mix-blend-mode: multiply;isolation: isolate"></path>
    <path id="Path_20276" data-name="Path 20276" d="M2213.69,1176.916h-4.562a2.267,2.267,0,0,1,0-4.533h4.562a2.267,2.267,0,0,1,0,4.533" transform="translate(-1559.194 -521.523)" fill="#ccc" stroke="rgba(0,0,0,0)" stroke-width="1" style="mix-blend-mode: multiply;isolation: isolate"></path>
    <path id="Path_20277" data-name="Path 20277" d="M2488.529,1404.6h-4.562a2.267,2.267,0,1,1,0-4.533h4.562a2.267,2.267,0,1,1,0,4.533" transform="translate(-1796.323 -717.969)" fill="#ccc" stroke="rgba(0,0,0,0)" stroke-width="1" style="mix-blend-mode: multiply;isolation: isolate"></path>
    <path id="Path_20278" data-name="Path 20278" d="M182.491,1211.654H99.275a1.97,1.97,0,0,1-1.97-1.97v-72.151a1.97,1.97,0,0,1,1.97-1.97h83.216a1.97,1.97,0,0,1,1.97,1.97v72.151a1.97,1.97,0,0,1-1.97,1.97" transform="translate(260.915 -489.755)" fill="#217909"></path>
    <path id="Path_20279" data-name="Path 20279" d="M291.262,1211.654H195.708a1.97,1.97,0,0,1-1.97-1.97v-72.151a1.97,1.97,0,0,1,1.97-1.97h95.553a1.97,1.97,0,0,1,1.97,1.97v72.151a1.97,1.97,0,0,1-1.97,1.97" transform="translate(177.714 -489.755)" fill="#2ea70d"></path>
    <path id="Path_20280" data-name="Path 20280" d="M382.742,1070.841l-1.6-3.728a3.544,3.544,0,0,0-3.258-3.754h-28.06a3.548,3.548,0,0,0-3.259,3.779h0l-1.585,3.7a1.224,1.224,0,0,1-1.1.791H336.3a.969.969,0,0,0-.891,1.033v.6H347v-1.44l1.718-4.156a.809.809,0,0,1,.73-.533h28.833a.809.809,0,0,1,.73.533l1.718,4.156v1.44h11.594v-.6a.97.97,0,0,0-.891-1.033h-7.591a1.223,1.223,0,0,1-1.1-.791" transform="translate(55.483 -427.457)" fill="#217909"></path>
    <path id="Path_20281" data-name="Path 20281" d="M396.223,1070.841l-1.6-3.728a3.544,3.544,0,0,0-3.258-3.754H363.31a3.548,3.548,0,0,0-3.259,3.779h0l-1.584,3.7a1.223,1.223,0,0,1-1.1.791h-7.591a.969.969,0,0,0-.891,1.033v.6h11.594v-1.44l1.718-4.156a.809.809,0,0,1,.73-.533h28.833a.809.809,0,0,1,.73.533l1.718,4.156v1.44H405.8v-.6a.969.969,0,0,0-.89-1.033h-7.591a1.223,1.223,0,0,1-1.1-.791" transform="translate(43.853 -427.457)" fill="#2ea70d"></path>
    <path id="Path_20282" data-name="Path 20282" d="M482.167,1299.686c0,11.329-7.336,20.512-16.386,20.512s-16.386-9.184-16.386-20.512,7.336-20.513,16.386-20.513,16.386,9.184,16.386,20.513" transform="translate(-42.865 -613.66)" fill="#217909"></path>
    <path id="Path_20283" data-name="Path 20283" d="M493.527,1317.989l-7.424.047v-9.13h-7.372v9.176l-7.461.047.038,9.066,7.424-.046v9.13H486.1V1327.1l7.461-.047Z" transform="translate(-59.502 -636.567)" fill="#fff"></path>
    <path id="Path_20284" data-name="Path 20284" d="M199.5,1234.422H83.8a.343.343,0,0,1-.342-.343v-4.83a.343.343,0,0,1,.342-.343H199.5a.343.343,0,0,1,.342.343v4.83a.343.343,0,0,1-.342.343" transform="translate(272.866 -570.291)" fill="#217909"></path>
    <path id="Path_20285" data-name="Path 20285" d="M98.584,1228.907H85.3a1.853,1.853,0,0,0-1.853,1.853v1.809a1.853,1.853,0,0,0,1.853,1.853H98.584Z" transform="translate(272.867 -570.291)" fill="#217909"></path>
    <path id="Path_20286" data-name="Path 20286" d="M844.18,785.742H627.54V654.99a6.706,6.706,0,0,1,6.706-6.706H837.474a6.706,6.706,0,0,1,6.706,6.706Z" transform="translate(-196.567 -69.334)" fill="#282928"></path>
    <rect id="Rectangle_5931" data-name="Rectangle 5931" width="193.837" height="110.927" transform="translate(442.313 590.327)" fill="#fcfcfc"></rect>
    <rect id="Rectangle_5932" data-name="Rectangle 5932" width="216.64" height="6.479" transform="translate(430.973 708.222)" fill="#e0e1e2"></rect>
    <path id="Path_20287" data-name="Path 20287" d="M832.076,1634.857H618.13a3.058,3.058,0,0,1-3.058-3.058v-2.94a3.058,3.058,0,0,1,3.058-3.058H832.076a3.058,3.058,0,0,1,3.058,3.058v2.94a3.058,3.058,0,0,1-3.058,3.058" transform="translate(-185.811 -912.729)" fill="#fff"></path>
    <path id="Path_20288" data-name="Path 20288" d="M615.4,1658.045v.931a3.7,3.7,0,0,0,3.656,3.742H831.712a3.92,3.92,0,0,0,3.909-3.742v-.931Z" transform="translate(-186.089 -940.548)" fill="#282928"></path>
    <path id="Path_20289" data-name="Path 20289" d="M807.321,1091.931c.992-.29,10.983-6.654,12.885-13.543.338-1.224,1.395-5.052-.966-7.731a7.025,7.025,0,0,0-8.7-1.289,7.444,7.444,0,0,0-3.221,5.8,7.444,7.444,0,0,0-3.221-5.8,7.025,7.025,0,0,0-8.7,1.289c-2.361,2.679-1.3,6.507-.966,7.731,1.9,6.889,11.893,13.253,12.885,13.543" transform="translate(-340.107 -431.807)" fill="#e0e1e2"></path>
    <path id="Path_20290" data-name="Path 20290" d="M813.65,1125.561l.3-.71.429,2.645a.413.413,0,0,0,.45.337h.012a.408.408,0,0,0,.442-.36l.517-4.809.588,9.117c.016.241.21.521.451.521h0a.531.531,0,0,0,.455-.5l.452-5.478.111.586a.445.445,0,0,0,.432.364.457.457,0,0,0,.459-.346l.315-1.208.155.683a.457.457,0,0,0,.875.053l.281-.78c.791-.011,4.685-.034,7.85-.051q.18-.322.342-.646c-3.47.019-8.018.045-8.34.055a.454.454,0,0,0-.414.3l-.107.3-.182-.807a.455.455,0,0,0-.438-.356.461.461,0,0,0-.449.341l-.3,1.133-.213-1.165a.457.457,0,0,0-.9.045l-.359,4.322-.565-8.675a.457.457,0,0,0-.91-.019l-.6,5.6-.311-1.953a.457.457,0,0,0-.872-.1l-.5,1.205c-.542,0-2.761.007-4.956.018-1.476.007-2.653.016-3.5.025l-.136,0q.168.322.356.64c2.118-.021,5.71-.036,8.359-.041a.456.456,0,0,0,.421-.281" transform="translate(-349.259 -476.363)" fill="#fff"></path>
    <path id="Path_20291" data-name="Path 20291" d="M788.609,858.813c-.2-2.688-.85-4.31-1.993-4.957a7.069,7.069,0,0,0-4.274-.405c-.028-.2-.048-.411-.057-.631-.044-1,.165-1,.27-3.784.119-3.148-.122-3.824-.541-4.325a3.621,3.621,0,0,0-3.244-1.081c-2.275.364-3.968,2.944-4.589,4.325a16.448,16.448,0,0,0-1.358,8.92c.453,3.761,1.815,6.085,3.784,7.569a5.973,5.973,0,0,0,6.487.541,5.446,5.446,0,0,0,2.433-4.325c.079-2.494-1.811-3.509-2.744-5.639a5.653,5.653,0,0,1,3.17.278c.628.356,1.055,1.651,1.2,3.647a42.528,42.528,0,0,1-.078,5.484c-.042.692-.073,1.191-.065,1.5l1.456-.048c-.006-.231.025-.746.062-1.343a44,44,0,0,0,.077-5.727" transform="translate(-321.807 -237.839)" fill="#e0e1e2"></path>
    <path id="Path_20292" data-name="Path 20292" d="M894.949,858.813c.2-2.688.85-4.31,1.993-4.957a7.069,7.069,0,0,1,4.274-.405c.028-.2.048-.411.057-.631.044-1-.165-1-.27-3.784-.119-3.148.122-3.824.541-4.325a3.622,3.622,0,0,1,3.244-1.081c2.275.364,3.968,2.944,4.589,4.325a16.448,16.448,0,0,1,1.358,8.92c-.453,3.761-1.815,6.085-3.784,7.569a5.973,5.973,0,0,1-6.487.541,5.446,5.446,0,0,1-2.433-4.325c-.079-2.494,1.811-3.509,2.744-5.639a5.653,5.653,0,0,0-3.17.278c-.628.356-1.055,1.651-1.2,3.647a42.5,42.5,0,0,0,.078,5.484c.042.692.073,1.191.065,1.5l-1.457-.048c.006-.231-.025-.746-.062-1.343a44,44,0,0,1-.077-5.727" transform="translate(-427.229 -237.839)" fill="#e0e1e2"></path>
    <path id="Path_20293" data-name="Path 20293" d="M785.333,1292.014c.008.482.271.853.8,1.594.991,1.4,1.617,1.52,2.191,2.523a5.2,5.2,0,0,1,.6,2.324,8.581,8.581,0,0,1-.73,4.051c-.584,1.522-.961,2.5-1.992,3.054a3.561,3.561,0,0,1-2.058.4c-.794-.1-.97-.449-1.926-.531-.8-.069-.919.153-1.461,0-.749-.211-.872-.735-1.461-1.129-1.321-.883-3.318,0-3.453.066-1.382.635-1.966,1.837-2.59,3.121-.417.857-.625,1.286-.531,1.793.328,1.778,3.262,2.906,3.984,2.258.325-.292.117-.878.664-1.328a1.057,1.057,0,0,1,.8-.266c.448.088.685.629.8.863a9.606,9.606,0,0,0,2.789,3.121,6.779,6.779,0,0,0,2.59,1.062,13.785,13.785,0,0,0,4.98.4,12.586,12.586,0,0,0,5.644-1.793,12.325,12.325,0,0,0,4.715-5.511,13.208,13.208,0,0,0,1.062-6.242,12.243,12.243,0,0,0-1.394-5.445c-.46-.852-2.523-4.534-5.179-4.051-1.15.209-1.648,1.149-2.789,1.062a2.229,2.229,0,0,1-1.062-.4c-1.621-1.034-1.125-3.147-2.125-3.519-.977-.364-2.877,1.125-2.855,2.523" transform="translate(-321.806 -622.515)" fill="#e0e1e2"></path>
    <path id="Path_20294" data-name="Path 20294" d="M1373.081,678.964a1.658,1.658,0,1,1,1.658,1.658,1.658,1.658,0,0,1-1.658-1.658" transform="translate(-839.814 -94.375)" fill="#c4c4c4"></path>
    <path id="Path_20295" data-name="Path 20295" d="M1410.761,684.645a.754.754,0,1,1,.754.754.754.754,0,0,1-.754-.754" transform="translate(-872.324 -100.056)" fill="#c4c4c4"></path>
    <path id="Path_20296" data-name="Path 20296" d="M1544.341,1114.174a8.582,8.582,0,1,0,1.87-12.161,8.7,8.7,0,0,0-1.87,12.161" transform="translate(-986.132 -459.465)" fill="#2ea70d"></path>
    <path id="Path_20297" data-name="Path 20297" d="M1546.211,1102.012a8.546,8.546,0,0,1,8.818-.618,8.419,8.419,0,0,0-1.016.618,8.7,8.7,0,0,0-1.87,12.161,8.975,8.975,0,0,0,3.287,2.826,8.839,8.839,0,0,1-9.219-14.987" transform="translate(-986.132 -459.465)" fill="#217909"></path>
    <path id="Path_20299" data-name="Path 20299" d="M1176.9,1114.174a8.582,8.582,0,1,1-1.87-12.161,8.7,8.7,0,0,1,1.87,12.161" transform="translate(-657.051 -459.465)" fill="#526dc6"></path>
    <path id="Path_20300" data-name="Path 20300" d="M1176.9,1114.174a8.582,8.582,0,1,1-1.87-12.161,8.7,8.7,0,0,1,1.87,12.161" transform="translate(-657.051 -459.465)" fill="#2ea70d"></path>
    <path id="Path_20301" data-name="Path 20301" d="M1203.7,1102.012a8.546,8.546,0,0,0-8.818-.618,8.441,8.441,0,0,1,1.016.618,8.7,8.7,0,0,1,1.87,12.161,8.976,8.976,0,0,1-3.287,2.826,8.839,8.839,0,0,0,9.219-14.987" transform="translate(-685.723 -459.465)" fill="#217909"></path>
    <rect id="Rectangle_5934" data-name="Rectangle 5934" width="33.266" height="23.399" transform="translate(521.947 674.193)" fill="#2ea70d"></rect>
    <rect id="Rectangle_5935" data-name="Rectangle 5935" width="27.058" height="23.399" transform="translate(525.051 674.193)" fill="#2ea70d"></rect>
    <rect id="Rectangle_5936" data-name="Rectangle 5936" width="33.266" height="6.271" transform="translate(521.947 674.193)" fill="#217909"></rect>
    <path id="Path_20302" data-name="Path 20302" d="M1266.021,1051.235l-19.5,4.443a2.791,2.791,0,0,0-2.171,2.721v22.912a2.792,2.792,0,0,0,.184,1l4.2,10.975a2.791,2.791,0,0,0,2.606,1.793h31.995a2.79,2.79,0,0,0,2.591-1.754l4.173-10.433a2.791,2.791,0,0,0,.2-1.036v-23.425a2.791,2.791,0,0,0-2.206-2.729l-20.872-4.473a2.793,2.793,0,0,0-1.2.008" transform="translate(-728.747 -416.938)" fill="#e4e5ea"></path>
    <path id="Path_20303" data-name="Path 20303" d="M1283.612,1058.439l-18.46,5.1a2.642,2.642,0,0,0-1.926,2.611v21.988a2.872,2.872,0,0,0,.164.958l3.729,10.533a2.49,2.49,0,0,0,2.313,1.72h28.388a2.485,2.485,0,0,0,2.3-1.683l3.7-10.013a2.87,2.87,0,0,0,.177-.995v-22.48a2.638,2.638,0,0,0-1.957-2.619Z" transform="translate(-745.032 -423.213)" fill="#e7e7e7"></path>
    <path id="Path_20304" data-name="Path 20304" d="M1367.974,986.615V975.6h12.592v11.016c0,5.508-2.96,5.888-6.108,5.8s-6.484-.656-6.484-5.8" transform="translate(-835.408 -351.739)" fill="#2ea70d"></path>
    <path id="Path_20305" data-name="Path 20305" d="M1368.659,982.3v.851h9.15v11.852a11.071,11.071,0,0,1-.394,2.99c2.172-.3,3.8-1.458,3.8-5.33V982.3Z" transform="translate(-835.999 -357.524)" fill="#217909"></path>
    <path id="Path_20306" data-name="Path 20306" d="M1374.937,1008.924c2.384,0,4.362-1.189,6.277-3.171V1002h-12.555v3.755a8.322,8.322,0,0,0,6.277,3.171" transform="translate(-835.999 -374.515)" fill="#217909"></path>
    <path id="Path_20308" data-name="Path 20308" d="M1323.306,1103.738a35.1,35.1,0,0,1-2.677,10.287,36.074,36.074,0,0,1-13.012,15.5,40.428,40.428,0,0,1-21.545,7.032l.761,2.11a2.442,2.442,0,0,0,2.31,1.673h28.389a2.441,2.441,0,0,0,2.3-1.636l3.743-9.989a2.784,2.784,0,0,0,.217-.971v-22.48a2.858,2.858,0,0,0-.483-1.528" transform="translate(-764.743 -462.296)" fill="#c4c4c4"></path>
    <path id="Path_20310" data-name="Path 20310" d="M1311.738,1495.78h-33.864a1.674,1.674,0,0,1,0-3.349h33.864a1.674,1.674,0,0,1,0,3.349" transform="translate(-756.226 -797.658)" fill="#f4f4f4"></path>
    <path id="Path_20311" data-name="Path 20311" d="M1311.738,1496.564h-33.864a2.085,2.085,0,0,1,0-4.088h33.864a2.085,2.085,0,0,1,0,4.088" transform="translate(-756.226 -797.697)" fill="#217909"></path>
    <path id="Path_20312" data-name="Path 20312" d="M1352.474,835.172c-.072,0-.144,0-.214,0-.17,0-.34,0-.511,0-.071,0-.142,0-.214,0-7.518,0-9.585,5.5-9.585,13.438s4.5,14.378,10.055,14.378,10.055-6.437,10.055-14.378-2.067-13.438-9.585-13.438" transform="translate(-812.954 -230.58)" fill="#fff"></path>
    <path id="Path_20313" data-name="Path 20313" d="M1352.474,835.172c-.072,0-.144,0-.214,0-.17,0-.34,0-.511,0-.071,0-.142,0-.214,0-7.518,0-9.585,5.5-9.585,13.438s4.5,14.378,10.055,14.378,10.055-6.437,10.055-14.378-2.067-13.438-9.585-13.438" transform="translate(-812.954 -230.58)" fill="#e7e7e7"></path>
    <path id="Path_20314" data-name="Path 20314" d="M1352.473,835.172c-.073,0-.144,0-.215,0q-.255.006-.511,0c-.071,0-.142,0-.214,0-7.518,0-9.585,5.5-9.585,13.438s4.5,14.378,10.055,14.378c-4.538,0-8.217-6.152-8.217-13.741s1.69-12.842,7.833-12.842l.175,0c.139,0,.278,0,.417,0l.175,0c6.144,0,7.833,5.254,7.833,12.842s-3.679,13.741-8.217,13.741c5.553,0,10.055-6.437,10.055-14.378s-2.067-13.438-9.585-13.438" transform="translate(-812.953 -230.58)" fill="#c4c4c4"></path>
    <path id="Path_20315" data-name="Path 20315" d="M1399.308,983.709h-4.149a.767.767,0,0,1-.765-.765v-.735a.767.767,0,0,1,.765-.765h4.148a.767.767,0,0,1,.765.765v.735a.767.767,0,0,1-.765.765" transform="translate(-858.204 -356.783)" fill="#282928"></path>
    <path id="Path_20316" data-name="Path 20316" d="M1399.708,982.856h-.672c.077.2-.036.1-.036.283v.018c0,.623-.351,1.324-.974,1.324h-2.742a1.058,1.058,0,0,0,1.01.609h3.413a1.3,1.3,0,0,0,1.12-1.321v-.018c0-.623-.5-.9-1.12-.9" transform="translate(-858.971 -358)" fill="#707070"></path>
    <rect id="Rectangle_5937" data-name="Rectangle 5937" width="5.635" height="12.587" transform="translate(573.29 677.723) rotate(-16.177)" fill="#217909"></rect>
    <path id="Path_20317" data-name="Path 20317" d="M1606.076,1191.126h0c2.708-.961,3.573-3.963,2.612-6.671l-5.646-23.8c-.961-2.708-11.461,6.059-10.5,8.766l7.428,18.53c.961,2.708,3.4,4.137,6.107,3.176" transform="translate(-1029.109 -510.961)" fill="#e7e7e7"></path>
    <path id="Path_20318" data-name="Path 20318" d="M1600.729,1163.2c-3.077,2.221-6.434,5.875-5.872,7.458l7.428,18.53c.907,2.556,3.131,3.972,5.655,3.314a4.337,4.337,0,0,1-1.864,1.263c-2.708.961-5.146-.468-6.107-3.176l-7.428-18.53c-.711-2,4.857-7.327,8.188-8.86" transform="translate(-1029.109 -513.598)" fill="#c4c4c4"></path>
    <rect id="Rectangle_5938" data-name="Rectangle 5938" width="7.344" height="3.929" transform="translate(589.23 667.559) rotate(-57.479)" fill="#217909"></rect>
    <path id="Path_20319" data-name="Path 20319" d="M1696.688,1274.2h0c-2.511-1.4-4.722,2.115-6.651,5.582l-8.493,13.082c-1.929,3.467-3.6,5.871.383,7.872,4.84,2.509,5.468-1.269,7.4-4.736l7.375-14.351c1.929-3.467,2.5-6.052-.01-7.449" transform="translate(-1104.183 -609.1)" fill="#e7e7e7"></path>
    <path id="Path_20320" data-name="Path 20320" d="M1697.23,1300.746h0c2.586.1,3.3-2.822,4.815-5.547l7.375-14.351c1.683-3.025,2.332-5.378.8-6.857a2.227,2.227,0,0,1,1.769.22c2.511,1.4,1.939,3.981.01,7.448l-7.375,14.351c-1.929,3.467-2.556,7.245-7.4,4.736" transform="translate(-1119.487 -609.109)" fill="#c4c4c4"></path>
    <path id="Path_20321" data-name="Path 20321" d="M1777.164,1116.925a5.2,5.2,0,0,1-5.275-.489,6.434,6.434,0,0,1-3.109-5.276l-2.38-10.3a1.2,1.2,0,0,1,2.207-.934l2.336,5.52c.527-1.058,7.224-12.29,7.224-12.29,1.126-2.052,3.327-1.129,2.074,1.2l-4.781,8.259a.347.347,0,0,0,.111.465l.14.092a.349.349,0,0,0,.5-.114l5.766-9.96c1.194-1.923,3.174-.949,2.074,1.2l-5.971,10.315a.347.347,0,0,0,.074.437l.143.125a.348.348,0,0,0,.533-.085l5.676-9.806a1.2,1.2,0,0,1,2.074,1.2l-6.093,10.526a.35.35,0,0,0,.037.4l0,.006a.347.347,0,0,0,.565-.052l4.636-8.009c1-1.7,2.786-.589,1.876,1.086,0,0-6.969,14.592-10.435,16.484" transform="translate(-1179.085 -452.184)" fill="#fff"></path>
    <path id="Path_20322" data-name="Path 20322" d="M1777.164,1116.925a5.2,5.2,0,0,1-5.275-.489,6.434,6.434,0,0,1-3.109-5.276l-2.38-10.3a1.2,1.2,0,0,1,2.207-.934l2.336,5.52c.527-1.058,7.224-12.29,7.224-12.29,1.126-2.052,3.327-1.129,2.074,1.2l-4.781,8.259a.347.347,0,0,0,.111.465l.14.092a.349.349,0,0,0,.5-.114l5.766-9.96c1.194-1.923,3.174-.949,2.074,1.2l-5.971,10.315a.347.347,0,0,0,.074.437l.143.125a.348.348,0,0,0,.533-.085l5.676-9.806a1.2,1.2,0,0,1,2.074,1.2l-6.093,10.526a.35.35,0,0,0,.037.4l0,.006a.347.347,0,0,0,.565-.052l4.636-8.009c1-1.7,2.786-.589,1.876,1.086,0,0-6.969,14.592-10.435,16.484" transform="translate(-1179.085 -452.184)" fill="#fff"></path>
    <path id="Path_20323" data-name="Path 20323" d="M1777.164,1116.925a5.2,5.2,0,0,1-5.275-.489,6.434,6.434,0,0,1-3.109-5.276l-2.38-10.3a1.2,1.2,0,0,1,2.207-.934l2.336,5.52c.527-1.058,7.224-12.29,7.224-12.29,1.126-2.052,3.327-1.129,2.074,1.2l-4.781,8.259a.347.347,0,0,0,.111.465l.14.092a.349.349,0,0,0,.5-.114l5.766-9.96c1.194-1.923,3.174-.949,2.074,1.2l-5.971,10.315a.347.347,0,0,0,.074.437l.143.125a.348.348,0,0,0,.533-.085l5.676-9.806a1.2,1.2,0,0,1,2.074,1.2l-6.093,10.526a.35.35,0,0,0,.037.4l0,.006a.347.347,0,0,0,.565-.052l4.636-8.009c1-1.7,2.786-.589,1.876,1.086,0,0-6.969,14.592-10.435,16.484" transform="translate(-1179.085 -452.184)" fill="#fff"></path>
    <path id="Path_20324" data-name="Path 20324" d="M1830.423,1103.556a.347.347,0,0,1-.111-.465l4.781-8.259a2.061,2.061,0,0,0,.257-1.826c.482.3.67,1.091.073,2.2l-4.781,8.259a.346.346,0,0,0-.045.2.383.383,0,0,1-.035-.018l-.14-.092" transform="translate(-1234.27 -453.037)" fill="#ededed"></path>
    <path id="Path_20325" data-name="Path 20325" d="M1801.634,1158.626a5.2,5.2,0,0,1-5.275-.489,7.078,7.078,0,0,1-1.692-1.5,7.032,7.032,0,0,0,1.361,1.129,5.2,5.2,0,0,0,5.275.489c3.466-1.892,10.434-16.484,10.434-16.484a1.532,1.532,0,0,0,.132-1.416,1.3,1.3,0,0,1,.2,1.792s-6.969,14.593-10.435,16.484" transform="translate(-1203.556 -493.886)" fill="#ededed"></path>
    <path id="Path_20326" data-name="Path 20326" d="M1787.268,1100.072s-6.969,14.593-10.435,16.484a5.2,5.2,0,0,1-5.275-.489,7.018,7.018,0,0,1-1.361-1.129c-3.174-2.34-3.8-14.073-3.8-14.073a1.2,1.2,0,0,1,1.82-1.425,1.165,1.165,0,0,1,.057.116l2.336,5.52c.021-.043.054-.1.1-.181l.235.556c.527-1.058,7.224-12.29,7.224-12.29.589-1.074,1.472-1.332,2-1a2.062,2.062,0,0,1-.257,1.826l-4.781,8.259a.347.347,0,0,0,.111.465l.14.092a.3.3,0,0,0,.035.018.347.347,0,0,0,.156.265l.14.092a.348.348,0,0,0,.5-.114l5.766-9.96c.617-.994,1.443-1.212,1.947-.9a1.969,1.969,0,0,1-.2,1.721l-5.971,10.315a.348.348,0,0,0,.074.437l.143.125a.358.358,0,0,0,.073.049.347.347,0,0,0,.115.2l.143.125a.348.348,0,0,0,.533-.085l5.676-9.806a1.153,1.153,0,0,1,1.765-.272,1.071,1.071,0,0,1-.021,1.1l-6.091,10.524a.343.343,0,0,0,.039.4l0,.006a.346.346,0,0,0,.247.12.341.341,0,0,0,.079.25l.005.006a.347.347,0,0,0,.563-.05l4.635-8.008c.508-.866,1.22-1,1.677-.705a1.533,1.533,0,0,1-.133,1.417" transform="translate(-1179.085 -452.19)" fill="#e7e7e7"></path>
    <path id="Path_20327" data-name="Path 20327" d="M1813.228,1213.906a2.832,2.832,0,1,0-4-.253,2.832,2.832,0,0,0,4,.253" transform="translate(-1215.511 -553.071)" fill="#282928"></path>
    <path id="Path_20328" data-name="Path 20328" d="M1819.736,1214.329a2.829,2.829,0,0,0,1.426-5.344,2.83,2.83,0,1,1-1.426,5.344" transform="translate(-1225.185 -553.103)" fill="#707070"></path>
    <path id="Path_20329" data-name="Path 20329" d="M1849.441,1105.825a.348.348,0,0,1-.074-.437l5.971-10.315a1.969,1.969,0,0,0,.2-1.721c.47.3.659,1.058.127,2.1l-5.971,10.315a.344.344,0,0,0-.041.235.353.353,0,0,1-.073-.049l-.143-.125" transform="translate(-1250.71 -453.335)" fill="#ededed"></path>
    <path id="Path_20330" data-name="Path 20330" d="M1866.971,1125.853l-.005-.006a.342.342,0,0,1-.039-.4l6.092-10.525a1.07,1.07,0,0,0,.021-1.1,1.1,1.1,0,0,1,.309,1.473l-6.093,10.526a.328.328,0,0,0-.039.149.344.344,0,0,1-.245-.122" transform="translate(-1265.86 -471.001)" fill="#ededed"></path>
    <rect id="Rectangle_5939" data-name="Rectangle 5939" width="7.344" height="5.635" transform="matrix(0.279, -0.96, 0.96, 0.279, 497.186, 683.279)" fill="#217909"></rect>
    <rect id="Rectangle_5940" data-name="Rectangle 5940" width="3.929" height="7.344" transform="translate(520.957 694.12) rotate(-79.23)" fill="#217909"></rect>
    <path id="Path_20331" data-name="Path 20331" d="M1118.865,1191.654h0c-2.708-.961-3.573-3.963-2.612-6.671l5.646-23.8c.961-2.708,11.461,6.058,10.5,8.766l-7.428,18.53c-.961,2.708-3.4,4.137-6.107,3.176" transform="translate(-617.899 -511.417)" fill="#e7e7e7"></path>
    <path id="Path_20332" data-name="Path 20332" d="M1124.5,1413.059h0c.633-2.8-3.36-3.936-7.23-4.81l-14.944-4.465c-3.87-.874-6.648-1.8-7.445,2.584h0c-1.044,5.351,2.757,4.889,6.627,5.763l15.847,3.035c3.87.874,6.511.7,7.144-2.107" transform="translate(-599.636 -720.542)" fill="#e7e7e7"></path>
    <path id="Path_20333" data-name="Path 20333" d="M1094.883,1427.218h0c.637,2.509,3.636,2.371,6.679,3.058l15.847,3.035c3.376.763,5.817.723,6.8-1.161a2.226,2.226,0,0,1,.287,1.76c-.633,2.8-3.274,2.982-7.144,2.107l-15.847-3.035c-3.87-.874-7.672-.412-6.627-5.763" transform="translate(-599.636 -741.392)" fill="#c4c4c4"></path>
    <path id="Path_20334" data-name="Path 20334" d="M1131.3,1163.725c3.077,2.221,6.434,5.875,5.872,7.458l-7.428,18.53c-.907,2.556-3.131,3.972-5.655,3.314a4.334,4.334,0,0,0,1.864,1.263c2.708.961,5.145-.468,6.106-3.176l7.428-18.53c.711-2-4.857-7.327-8.187-8.86" transform="translate(-624.981 -514.053)" fill="#c4c4c4"></path>
    <path id="Path_20335" data-name="Path 20335" d="M1351.615,1468.713c0,1.122-1.262,2.032-2.819,2.032H1330.22c-3.2,0-5.8-1.835-5.8-4.1,0-2.782,3.837-4.756,7.582-3.9l17.644,4.031a2.231,2.231,0,0,1,1.967,1.937" transform="translate(-797.831 -771.871)" fill="#fff"></path>
    <path id="Path_20336" data-name="Path 20336" d="M1351.216,1490.723h-20.756a7.3,7.3,0,0,1-5.954-2.591,4.014,4.014,0,0,0-.085.816c0,2.264,2.6,4.213,5.8,4.213H1348.8c1.557,0,2.819-1.079,2.819-2.2a1.251,1.251,0,0,0-.033-.278c-.12.009-.242.042-.366.042" transform="translate(-797.83 -793.949)" fill="#e4e5ea"></path>
    <path id="Path_20337" data-name="Path 20337" d="M1327.824,1150.582h-23.066c-2.019,0-3.671-5.288-3.671-11.751s1.652-11.751,3.671-11.751h23.066c2.019,0,3.671,5.288,3.671,11.751s-1.652,11.751-3.671,11.751" transform="translate(-777.699 -482.436)" fill="#2ea70d"></path>
    <path id="Path_20338" data-name="Path 20338" d="M1365.8,1157.749h-5.892v-6.095h-5.688v6.095h-5.892v5.079h5.892v5.892h5.688v-5.892h5.892Z" transform="translate(-818.459 -503.638)" fill="#fff"></path>
    <path id="Path_20339" data-name="Path 20339" d="M1372.591,913.233h-12.373a1.56,1.56,0,0,1-1.555-1.555v-2.372a1.56,1.56,0,0,1,1.555-1.555h12.373a1.56,1.56,0,0,1,1.555,1.555v2.372a1.56,1.56,0,0,1-1.555,1.555" transform="translate(-827.375 -293.2)" fill="#2ea70d"></path>
    <path id="Path_20340" data-name="Path 20340" d="M1373.186,908.823h-.785c.066.2-.079.217-.079.415V911.5a1.641,1.641,0,0,1-1.428,1.8h-11.475a1.8,1.8,0,0,0,1.508.813h12.26a1.722,1.722,0,0,0,1.776-1.559v-2.259a1.648,1.648,0,0,0-1.776-1.465" transform="translate(-828.026 -294.125)" fill="#217909"></path>
    <g id="Group_14306" data-name="Group 14306" transform="translate(524.641 644.562)" opacity="0.23">
      <g id="Group_14305" data-name="Group 14305">
        <g id="Group_14304" data-name="Group 14304" clip-path="url(#clip-path)">
          <path id="Path_20341" data-name="Path 20341" d="M1335.693,1126.482h-1.7c.351,3.352.294,8.544-3.174,13.009-3.376,4.346-8.249,5.624-12.159,6.633a31.433,31.433,0,0,1-8.451.986c.647,1.824,1.495,2.938,2.42,2.938h23.066c2.019,0,3.671-5.32,3.671-11.783s-1.652-11.783-3.671-11.783" transform="translate(-1310.208 -1126.482)" fill="#09578c"></path>
        </g>
      </g>
    </g>
    <path id="Path_20342" data-name="Path 20342" d="M1255.883,1145.713a4.2,4.2,0,0,1-2.27-.8c-1.892-1.4-1.362-4.8-1.187-5.915a46.688,46.688,0,0,1,3.825-11.059,4.72,4.72,0,0,1,2.135-2.216,3.583,3.583,0,0,1,3.485.253,3.858,3.858,0,0,1,1.282,2.487c.439,1.851.236,7.766.113,9.711-.2,3.1-.577,4.39-1.166,5.568a3.307,3.307,0,0,1-2.082,1.811,3.87,3.87,0,0,1-2.6-.211l.447-.727a3.113,3.113,0,0,0,1.973.1,2.5,2.5,0,0,0,1.5-1.357c.54-1.08.89-2.284,1.077-5.24.154-2.418.29-7.852-.091-9.459-.37-1.56-.784-1.868-.961-2a2.747,2.747,0,0,0-2.633-.156,3.855,3.855,0,0,0-1.74,1.863,45.452,45.452,0,0,0-3.72,10.762c-.415,2.657-.128,4.372.852,5.1a3.355,3.355,0,0,0,1.809.631Z" transform="translate(-735.54 -480.979)" fill="#bab9b6"></path>
    <path id="Path_20343" data-name="Path 20343" d="M1310.269,1061.322l-.847-.1a29.768,29.768,0,0,1,.629-3.659,13.308,13.308,0,0,1,1.906-4.212,8.722,8.722,0,0,1,5.5-2.773l.044.807a7.752,7.752,0,0,0-4.871,2.493,12.5,12.5,0,0,0-1.764,3.944,29.919,29.919,0,0,0-.595,3.5" transform="translate(-784.889 -416.431)" fill="#282928"></path>
    <path id="Path_20344" data-name="Path 20344" d="M1470.261,1077.178l-.85-.071a29.9,29.9,0,0,0-.62-9.563c-2.445-9.806-8.038-12.152-9.185-13.346l.076-.907c.553.584,7.67,3.52,9.937,14.047a32.5,32.5,0,0,1,.642,9.84" transform="translate(-914.467 -418.771)" fill="#282928"></path>
    <path id="Path_20345" data-name="Path 20345" d="M1515.391,1229.165a2.338,2.338,0,1,1,1.923,2.782,2.393,2.393,0,0,1-1.923-2.782" transform="translate(-962.571 -568.72)" fill="#babbbf"></path>
    <path id="Path_20346" data-name="Path 20346" d="M1517.844,1231.434a2,2,0,1,1,1.646,2.381,2.048,2.048,0,0,1-1.646-2.381" transform="translate(-964.691 -570.937)" fill="#ccc"></path>
    <path id="Path_20347" data-name="Path 20347" d="M1521.473,1234.865a1.5,1.5,0,1,1,1.238,1.776,1.531,1.531,0,0,1-1.238-1.776" transform="translate(-967.828 -574.29)" fill="#adadad"></path>
    <path id="Path_20348" data-name="Path 20348" d="M1524.209,1237.379a1.125,1.125,0,1,1,.928,1.331,1.148,1.148,0,0,1-.928-1.331" transform="translate(-970.193 -576.744)" fill="#b5b5b5"></path>
    <path id="Path_20349" data-name="Path 20349" d="M1278.073,1127.542a3.979,3.979,0,0,0-1.335-2.568,3.726,3.726,0,0,0-3.627-.269,4.84,4.84,0,0,0-2.2,2.274,29.316,29.316,0,0,0-1.554,3.49l1.132.212a26.779,26.779,0,0,1,1.406-3.129,3.742,3.742,0,0,1,1.673-1.8,2.6,2.6,0,0,1,2.492.139c.15.112.55.409.908,1.918a23.354,23.354,0,0,1,.243,4.133l1.135.212a25.236,25.236,0,0,0-.272-4.608" transform="translate(-750.32 -480.089)" fill="#282928"></path>
    <path id="Path_20350" data-name="Path 20350" d="M1271.929,1265.277a.779.779,0,1,1,.779.779.779.779,0,0,1-.779-.779" transform="translate(-752.541 -600.999)" fill="#282928"></path>
    <path id="Path_20351" data-name="Path 20351" d="M1289.549,1265.277a.779.779,0,1,1,.779.779.779.779,0,0,1-.779-.779" transform="translate(-767.744 -600.999)" fill="#282928"></path>
    <rect id="Rectangle_5942" data-name="Rectangle 5942" width="193.837" height="7.91" transform="translate(442.313 590.327)" fill="#e0e1e2"></rect>
    <rect id="Rectangle_5943" data-name="Rectangle 5943" width="6.095" height="0.813" transform="translate(602.805 595.601)" fill="#fff"></rect>
    <rect id="Rectangle_5944" data-name="Rectangle 5944" width="5.79" height="4.596" transform="translate(612.485 591.764)" fill="#fff"></rect>
    <rect id="Rectangle_5945" data-name="Rectangle 5945" width="4.235" height="3.041" transform="translate(613.263 592.541)" fill="#fff"></rect>
    <rect id="Rectangle_5946" data-name="Rectangle 5946" width="6.103" height="0.777" transform="translate(622.478 595.668) rotate(-38.731)" fill="#fff"></rect>
    <rect id="Rectangle_5947" data-name="Rectangle 5947" width="0.777" height="6.103" transform="matrix(0.626, -0.78, 0.78, 0.626, 622.478, 592.456)" fill="#fff"></rect>
    <g id="Group_14309" data-name="Group 14309" transform="translate(442.309 590.318)" opacity="0.16">
      <g id="Group_14308" data-name="Group 14308">
        <g id="Group_14307" data-name="Group 14307" clip-path="url(#clip-path-2)">
          <path id="Path_20353" data-name="Path 20353" d="M710.158,731.141V735H899.91V842.067h4.063V731.141Z" transform="translate(-710.158 -731.141)" fill="#134d7c"></path>
        </g>
      </g>
    </g>
    <rect id="Rectangle_5949" data-name="Rectangle 5949" width="6.654" height="6.654" transform="translate(579.863 611.01)" fill="#e0e1e2"></rect>
    <g id="Group_14312" data-name="Group 14312" transform="translate(590.589 611.292)">
      <g id="Group_14311" data-name="Group 14311">
        <g id="Group_14310" data-name="Group 14310" clip-path="url(#clip-path-3)">
          <path id="Path_20354" data-name="Path 20354" d="M1799.5,886.367h-7.663a.974.974,0,0,1,0-1.948h7.663a.974.974,0,0,1,0,1.948" transform="translate(-1790.862 -884.361)" fill="#c4c4c4"></path>
          <path id="Path_20355" data-name="Path 20355" d="M1807.382,916.14h-15.863a.66.66,0,0,1-.658-.658v-.632a.66.66,0,0,1,.658-.658h15.863a.66.66,0,0,1,.658.658v.632a.66.66,0,0,1-.658.658" transform="translate(-1790.861 -910.049)" fill="#c4c4c4"></path>
          <path id="Path_20356" data-name="Path 20356" d="M1875.107,886.367h-4.524a.974.974,0,0,1,0-1.948h4.524a.974.974,0,1,1,0,1.948" transform="translate(-1858.805 -884.361)" fill="#c4c4c4"></path>
          <path id="Path_20357" data-name="Path 20357" d="M2019.928,886.367h-5.765a.974.974,0,1,1,0-1.948h5.765a.974.974,0,0,1,0,1.948" transform="translate(-1982.684 -884.361)" fill="#c4c4c4"></path>
          <path id="Path_20358" data-name="Path 20358" d="M1937.422,885.946h-8.3a.974.974,0,1,1,0-1.948h8.3a.974.974,0,1,1,0,1.948" transform="translate(-1909.311 -883.998)" fill="#c4c4c4"></path>
          <path id="Path_20359" data-name="Path 20359" d="M1939.16,916.14h-10.353a.66.66,0,0,1-.658-.658v-.632a.66.66,0,0,1,.658-.658h10.353a.66.66,0,0,1,.658.658v.632a.66.66,0,0,1-.658.658" transform="translate(-1909.312 -910.049)" fill="#c4c4c4"></path>
        </g>
      </g>
    </g>
    <path id="Path_20373" data-name="Path 20373" d="M899.022,731.141c-.181,3.759,2.909,35.609-4.784,64.649-5.229,19.737-23.026,36.5-52.8,39.859-16.032,1.81-64.434,1.458-131.274,3.3v3.118H904.177V731.141Z" transform="translate(-267.851 -140.823)" fill="#b5b5b5"></path>
    <g id="Group_14321" data-name="Group 14321" transform="translate(415.491 568.783)" opacity="0.15">
      <g id="Group_14320" data-name="Group 14320">
        <g id="Group_14319" data-name="Group 14319" clip-path="url(#clip-path-4)">
          <path id="Path_20374" data-name="Path 20374" d="M520.119,574.19H605.73c3,0,5.481,2.229,5.481,4.874v.883l.359,42.952s-9.214-13.634-9.551-13.634l-81.38-.164c-3.265,0-5.929-2.373-5.929-5.249V579.064a5.184,5.184,0,0,1,5.41-4.874" transform="translate(-514.709 -574.19)" fill="#262f59"></path>
        </g>
      </g>
    </g>
    <path id="Path_20375" data-name="Path 20375" d="M540.364,574.564h82.98c3.2,0,5.794,2.188,5.794,4.886v40.743s-8.625-12.987-8.956-12.987H540.364c-3.2,0-5.794-2.188-5.794-4.886V579.45c0-2.7-.249-4.886,5.794-4.886" transform="translate(-116.353 -5.729)" fill="#fff"></path>
    <path id="Path_20376" data-name="Path 20376" d="M534.58,579.059c0-3.386.6-4.477,5.33-4.495h83.909c2.944,0,5.33,2.012,5.33,4.495v.829H534.58Z" transform="translate(-116.362 -5.729)" fill="#282928"></path>
    <path id="Path_20377" data-name="Path 20377" d="M638.894,587.836a1.1,1.1,0,1,0,1.1-1.024,1.062,1.062,0,0,0-1.1,1.024" transform="translate(-206.363 -16.297)" fill="#fff"></path>
    <path id="Path_20378" data-name="Path 20378" d="M574.389,587.836a1.1,1.1,0,1,1-1.1-1.024,1.062,1.062,0,0,1,1.1,1.024" transform="translate(-148.817 -16.297)" fill="#fff"></path>
    <path id="Path_20379" data-name="Path 20379" d="M605.544,587.836a1.1,1.1,0,1,0,1.1-1.024,1.062,1.062,0,0,0-1.1,1.024" transform="translate(-177.59 -16.297)" fill="#fff"></path>
    <path id="Path_20380" data-name="Path 20380" d="M270.311,1437.948H252.666a5.817,5.817,0,0,1-5.817-5.817v-35.673a5.817,5.817,0,0,1,5.817-5.817h17.645a5.817,5.817,0,0,1,5.818,5.817v35.673a5.817,5.817,0,0,1-5.818,5.817" transform="translate(131.89 -709.833)" fill="#f9cc5d"></path>
    <path id="Path_20381" data-name="Path 20381" d="M273.364,1437.948H249.613a2.764,2.764,0,0,1-2.764-2.764V1393.4a2.764,2.764,0,0,1,2.764-2.764h23.751a2.764,2.764,0,0,1,2.764,2.764v41.779a2.764,2.764,0,0,1-2.764,2.764" transform="translate(131.89 -709.833)" fill="#e0e1e2"></path>
    <path id="Path_20382" data-name="Path 20382" d="M273.01,1391.256H251.664a4.026,4.026,0,0,0-3.832,2.994h16a3.892,3.892,0,0,1,4.014,3.829v39.374a5.4,5.4,0,0,1-.182,1.146h5.343a4.106,4.106,0,0,0,4.008-4.087v-39.374a3.931,3.931,0,0,0-4.008-3.882" transform="translate(131.042 -710.365)" fill="#ccc" stroke="rgba(0,0,0,0)" stroke-width="1" style="mix-blend-mode: multiply;isolation: isolate"></path>
    <rect id="Rectangle_5956" data-name="Rectangle 5956" width="29.283" height="4.551" transform="translate(378.738 684.773)" fill="#ccc" stroke="rgba(0,0,0,0)" stroke-width="1" style="mix-blend-mode: multiply;isolation: isolate"></rect>
    <path id="Path_20383" data-name="Path 20383" d="M264.542,1375.983h-28.5a2.17,2.17,0,0,1-2.17-2.17V1368.2a2.17,2.17,0,0,1,2.17-2.17h28.5a2.17,2.17,0,0,1,2.17,2.17v5.608a2.17,2.17,0,0,1-2.17,2.17" transform="translate(143.086 -688.604)" fill="#fff"></path>
    <path id="Path_20384" data-name="Path 20384" d="M280.708,1349.7h-23.29a1.79,1.79,0,0,1-1.79-1.79v-2.153a1.79,1.79,0,0,1,1.79-1.79h23.29a1.79,1.79,0,0,1,1.79,1.79v2.153a1.79,1.79,0,0,1-1.79,1.79" transform="translate(124.315 -669.562)" fill="#fff"></path>
    <path id="Path_20385" data-name="Path 20385" d="M281.686,1349.7H256.44a.812.812,0,0,1-.812-.812v-4.109a.812.812,0,0,1,.812-.812h25.246a.812.812,0,0,1,.812.812v4.109a.812.812,0,0,1-.812.812" transform="translate(124.315 -669.562)" fill="#fff"></path>
    <path id="Path_20386" data-name="Path 20386" d="M281.577,1343.522h-4.831v3.157a1.3,1.3,0,0,1-1.186,1.334H255.975v-.105a1.187,1.187,0,0,0,1.173,1.228h24.429a1.174,1.174,0,0,0,1.157-1.228v-3.292a1.066,1.066,0,0,0-1.157-1.094" transform="translate(124.016 -669.18)" fill="#e2e2e2"></path>
    <path id="Path_20387" data-name="Path 20387" d="M265.715,1375.983H235.184a1.312,1.312,0,0,1-1.312-1.312v-7.337a1.3,1.3,0,0,1,1.3-1.3h30.543a1,1,0,0,1,1,1v7.953a1,1,0,0,1-1,1" transform="translate(143.086 -688.604)" fill="#fff"></path>
    <path id="Path_20388" data-name="Path 20388" d="M414.915,1366.707h-7.557v9.918h7.557a1.488,1.488,0,0,0,1.425-1.541v-6.989a1.358,1.358,0,0,0-1.425-1.388" transform="translate(-6.596 -689.184)" fill="#e2e2e2"></path>
    <rect id="Rectangle_5957" data-name="Rectangle 5957" width="26.862" height="1.157" transform="translate(379.943 676.273)" fill="#e2e2e2"></rect>
    <rect id="Rectangle_5958" data-name="Rectangle 5958" width="29.335" height="15.245" transform="translate(378.687 697.515)" fill="#fe9b32"></rect>
    <path id="Path_20389" data-name="Path 20389" d="M324.3,1531.381h-3.742v-3.742H317v3.742h-3.742v3.368H317v3.93h3.555v-3.93H324.3Z" transform="translate(74.595 -828.034)" fill="#fff"></path>
    <rect id="Rectangle_5959" data-name="Rectangle 5959" width="9.169" height="15.245" transform="translate(398.852 697.515)" fill="#ccc" stroke="rgba(0,0,0,0)" stroke-width="1" style="mix-blend-mode: multiply;isolation: isolate"></rect>
    <path id="Path_20390" data-name="Path 20390" d="M247.456,1383.971h0a.609.609,0,0,1-.607-.607v-5.835a.607.607,0,1,1,1.213,0v5.835a.609.609,0,0,1-.607.607" transform="translate(131.89 -697.998)" fill="#c4c4c4"></path>
    <path id="Path_20391" data-name="Path 20391" d="M264.5,1383.971h0a.609.609,0,0,1-.607-.607v-5.835a.607.607,0,1,1,1.214,0v5.835a.609.609,0,0,1-.607.607" transform="translate(117.182 -697.998)" fill="#c4c4c4"></path>
    <path id="Path_20392" data-name="Path 20392" d="M281.551,1383.971h0a.609.609,0,0,1-.607-.607v-5.835a.607.607,0,1,1,1.213,0v5.835a.609.609,0,0,1-.607.607" transform="translate(102.473 -697.998)" fill="#c4c4c4"></path>
    <path id="Path_20393" data-name="Path 20393" d="M298.6,1383.971h0a.609.609,0,0,1-.607-.607v-5.835a.607.607,0,1,1,1.213,0v5.835a.609.609,0,0,1-.607.607" transform="translate(87.764 -697.998)" fill="#c4c4c4"></path>
    <path id="Path_20394" data-name="Path 20394" d="M315.647,1383.971h0a.609.609,0,0,1-.607-.607v-5.835a.607.607,0,1,1,1.213,0v5.835a.609.609,0,0,1-.607.607" transform="translate(73.055 -697.998)" fill="#c4c4c4"></path>
    <path id="Path_20395" data-name="Path 20395" d="M332.694,1383.971h0a.609.609,0,0,1-.607-.607v-5.835a.607.607,0,1,1,1.214,0v5.835a.609.609,0,0,1-.607.607" transform="translate(58.347 -697.998)" fill="#c4c4c4"></path>
    <path id="Path_20396" data-name="Path 20396" d="M349.742,1383.971h0a.609.609,0,0,1-.607-.607v-5.835a.607.607,0,1,1,1.214,0v5.835a.609.609,0,0,1-.607.607" transform="translate(43.639 -697.998)" fill="#c4c4c4"></path>
    <path id="Path_20397" data-name="Path 20397" d="M366.79,1383.971h0a.609.609,0,0,1-.607-.607v-5.835a.607.607,0,1,1,1.213,0v5.835a.609.609,0,0,1-.607.607" transform="translate(28.93 -697.998)" fill="#c4c4c4"></path>
    <path id="Path_20398" data-name="Path 20398" d="M383.838,1383.971h0a.609.609,0,0,1-.607-.607v-5.835a.607.607,0,1,1,1.213,0v5.835a.609.609,0,0,1-.607.607" transform="translate(14.221 -697.998)" fill="#c4c4c4"></path>
    <path id="Path_20399" data-name="Path 20399" d="M400.885,1383.971h0a.609.609,0,0,1-.607-.607v-5.835a.607.607,0,1,1,1.213,0v5.835a.609.609,0,0,1-.607.607" transform="translate(-0.487 -697.998)" fill="#c4c4c4"></path>
    <path id="Path_20400" data-name="Path 20400" d="M417.933,1383.971h0a.609.609,0,0,1-.607-.607v-5.835a.607.607,0,1,1,1.214,0v5.835a.609.609,0,0,1-.607.607" transform="translate(-15.196 -697.998)" fill="#c4c4c4"></path>
    <path id="Path_20401" data-name="Path 20401" d="M434.981,1383.971h0a.609.609,0,0,1-.607-.607v-5.835a.607.607,0,1,1,1.214,0v5.835a.609.609,0,0,1-.607.607" transform="translate(-29.905 -697.998)" fill="#c4c4c4"></path>
    <path id="Path_20402" data-name="Path 20402" d="M452.029,1383.971h0a.609.609,0,0,1-.607-.607v-5.835a.607.607,0,1,1,1.214,0v5.835a.609.609,0,0,1-.607.607" transform="translate(-44.614 -697.998)" fill="#c4c4c4"></path>
    <path id="Path_20403" data-name="Path 20403" d="M1348.049,1706.441h0a3.7,3.7,0,0,0-.075-.747A3.7,3.7,0,0,1,1348.049,1706.441Z" transform="translate(-818.152 -981.659)" fill="#e2e2ea"></path>
    <path id="Path_20404" data-name="Path 20404" d="M1274.147,1691.385h-.867l-.031-.315q-.035-.345-.062-.691-.04-.48-.063-.962a33.473,33.473,0,0,1,.165-5.467h.866a33.645,33.645,0,0,0-.1,6.43q.026.346.061.691Z" transform="translate(-753.535 -962.897)" fill="#e2e2ea"></path>
    <path id="Path_20405" data-name="Path 20405" d="M1347.4,1703.458q-.037-.181-.092-.356.054.174.092.356" transform="translate(-817.577 -979.423)" fill="#e2e2ea"></path>
    <path id="Path_20406" data-name="Path 20406" d="M1213.562,1697.9l-.023.042.023-.042" transform="translate(-702.163 -974.931)" fill="#e2e2ea"></path>
    <path id="Path_20407" data-name="Path 20407" d="M1214.167,1696.775l.032-.052-.032.052" transform="translate(-702.705 -973.919)" fill="#e2e2ea"></path>
    <path id="Path_20408" data-name="Path 20408" d="M1215.591,1694.648l-.038.051.021-.028.018-.023" transform="translate(-703.9 -972.129)" fill="#e2e2ea"></path>
    <path id="Path_20409" data-name="Path 20409" d="M1214.9,1695.567l-.041.06.02-.029.022-.031" transform="translate(-703.305 -972.922)" fill="#e2e2ea"></path>
    <path id="Path_20410" data-name="Path 20410" d="M1216.476,1693.606l-.03.036.016-.019.014-.017" transform="translate(-704.671 -971.23)" fill="#e2e2ea"></path>
    <path id="Path_20411" data-name="Path 20411" d="M1218.071,1691.168c.048-.048.1-.1.146-.142-.05.046-.1.093-.146.142" transform="translate(-706.073 -969.004)" fill="#e2e2ea"></path>
    <path id="Path_20412" data-name="Path 20412" d="M1217.334,1692.732l-.015.016.01-.011.005-.006" transform="translate(-705.424 -970.476)" fill="#e2e2ea"></path>
    <path id="Path_20413" data-name="Path 20413" d="M1211.11,1703.75c.009-.038.02-.076.031-.113-.011.038-.021.075-.031.113" transform="translate(-700.067 -979.885)" fill="#e2e2ea"></path>
    <path id="Path_20414" data-name="Path 20414" d="M1210.794,1705.19q.011-.057.024-.113-.013.056-.024.113" transform="translate(-699.794 -981.127)" fill="#e2e2ea"></path>
    <path id="Path_20415" data-name="Path 20415" d="M1211.5,1702.227c.014-.045.029-.09.045-.134-.016.044-.031.089-.045.134" transform="translate(-700.4 -978.553)" fill="#e2e2ea"></path>
    <path id="Path_20416" data-name="Path 20416" d="M1211.951,1700.557q.034-.093.073-.184-.039.091-.073.184" transform="translate(-700.793 -977.068)" fill="#e2e2ea"></path>
    <path id="Path_20417" data-name="Path 20417" d="M1212.568,1699.2q.035-.08.074-.158-.039.078-.074.158" transform="translate(-701.325 -975.918)" fill="#e2e2ea"></path>
    <path id="Path_20418" data-name="Path 20418" d="M1210.3,1709.647c0-.07,0-.14.006-.209,0,.069-.006.139-.007.209,0,.01,0,.02,0,.029,0-.01,0-.02,0-.029" transform="translate(-699.371 -984.89)" fill="#e2e2ea"></path>
    <path id="Path_20419" data-name="Path 20419" d="M1225.653,1686.323l-.094.044c.031-.016.062-.03.094-.044" transform="translate(-712.534 -964.946)" fill="#e2e2ea"></path>
    <path id="Path_20420" data-name="Path 20420" d="M1224.426,1687.114l.01-.005-.034.018.024-.013" transform="translate(-711.535 -965.625)" fill="#e2e2ea"></path>
    <path id="Path_20421" data-name="Path 20421" d="M1229.052,1685.059l-.084.027.084-.027" transform="translate(-715.475 -963.855)" fill="#e2e2ea"></path>
    <path id="Path_20422" data-name="Path 20422" d="M1226.646,1685.929l.038-.017.042-.017-.08.034" transform="translate(-713.472 -964.577)" fill="#e2e2ea"></path>
    <path id="Path_20423" data-name="Path 20423" d="M1210.551,1706.635c.005-.041.011-.081.018-.122-.007.04-.013.081-.018.122" transform="translate(-699.585 -982.366)" fill="#e2e2ea"></path>
    <path id="Path_20424" data-name="Path 20424" d="M1233.022,1684.186l-.072.012.072-.012" transform="translate(-718.91 -963.103)" fill="#e2e2ea"></path>
    <path id="Path_20425" data-name="Path 20425" d="M1234.587,1684l-.081.007.081-.007" transform="translate(-720.253 -962.944)" fill="#e2e2ea"></path>
    <path id="Path_20426" data-name="Path 20426" d="M1231.849,1684.392l-.068.014.068-.014" transform="translate(-717.902 -963.28)" fill="#e2e2ea"></path>
    <path id="Path_20427" data-name="Path 20427" d="M1223.265,1687.77l.036-.022-.036.022" transform="translate(-710.555 -966.176)" fill="#e2e2ea"></path>
    <path id="Path_20428" data-name="Path 20428" d="M1221.624,1688.417q.067-.049.136-.094-.069.045-.136.094" transform="translate(-709.139 -966.672)" fill="#e2e2ea"></path>
    <path id="Path_20429" data-name="Path 20429" d="M1220.931,1689.227l.061-.047-.061.047" transform="translate(-708.541 -967.411)" fill="#e2e2ea"></path>
    <path id="Path_20430" data-name="Path 20430" d="M1228.03,1685.4l-.082.029.082-.029" transform="translate(-714.595 -964.15)" fill="#e2e2ea"></path>
    <path id="Path_20431" data-name="Path 20431" d="M1230.611,1684.7l-.043.011.043-.011" transform="translate(-716.855 -963.546)" fill="#e2e2ea"></path>
    <path id="Path_20432" data-name="Path 20432" d="M1220.021,1689.895l.07-.057-.07.057" transform="translate(-707.755 -967.979)" fill="#e2e2ea"></path>
    <path id="Path_20433" data-name="Path 20433" d="M1219.145,1690.758l.047-.041-.047.041" transform="translate(-707 -968.737)" fill="#e2e2ea"></path>
    <path id="Path_20436" data-name="Path 20436" d="M1210.384,1708.11c0-.048.008-.1.013-.144-.005.048-.009.1-.013.144" transform="translate(-699.44 -983.62)" fill="#e2e2ea"></path>
    <path id="Path_20443" data-name="Path 20443" d="M1235.777,1683.924l-.085,0,.085,0" transform="translate(-721.276 -962.876)" fill="#e2e2ea"></path>
    <path id="Path_20460" data-name="Path 20460" d="M1274.055,1690.379h-.867q-.04-.48-.063-.962a33.473,33.473,0,0,1,.165-5.467h.866a33.642,33.642,0,0,0-.1,6.43" transform="translate(-753.535 -962.897)" fill="#fff"></path>
    <path id="Path_20461" data-name="Path 20461" d="M1279.6,1691.389l5.561.007a3.718,3.718,0,1,0,.01-7.436l-5.561-.007a33.716,33.716,0,0,0-.041,7.121Z" transform="translate(-758.986 -962.901)" fill="#f5677c"></path>
    <path id="Path_20462" data-name="Path 20462" d="M1219.119,1691.343l-5.1-.006a3.733,3.733,0,0,1-3.562-2.671,3.7,3.7,0,0,1,.238-2.7l.044-.085c.014-.026.028-.051.042-.076l.008-.014c.015-.027.03-.052.045-.077s.034-.055.051-.082.024-.038.037-.058.02-.029.03-.044.026-.038.039-.056.037-.052.056-.078l.044-.058.03-.038.044-.053.062-.073.052-.058.034-.036.043-.046c.053-.054.108-.108.163-.158l.1-.087c.038-.032.077-.064.116-.094s.069-.053.1-.079c.06-.043.119-.085.182-.125l.063-.039.085-.052q.049-.029.1-.055l.051-.027c.027-.015.055-.028.083-.042s.084-.04.126-.059c.02-.01.041-.019.062-.027s.071-.029.107-.044l.008,0c.042-.016.084-.032.126-.045l.02-.007c.042-.015.084-.028.127-.041a3.705,3.705,0,0,1,1.055-.151l5.1.007a33.5,33.5,0,0,0-.165,5.467q.041.828.125,1.654Z" transform="translate(-699.373 -962.856)" fill="#189488"></path>
    <path id="Path_20463" data-name="Path 20463" d="M1221.12,1690.341l-4.851-.006a3.576,3.576,0,0,1-3.374-2.622,3.876,3.876,0,0,1-.1-1.745l.044-.085.042-.076.008-.014c.014-.027.03-.052.045-.077s.034-.055.051-.082.024-.038.037-.058l.03-.044c.012-.019.026-.038.039-.056s.037-.052.056-.078l.044-.058.03-.038.044-.053.062-.073.052-.058.034-.036.043-.046c.053-.054.108-.108.163-.158l.1-.087c.038-.032.077-.064.116-.094s.069-.053.1-.079c.06-.043.12-.085.182-.125l.063-.039.085-.052.1-.055.051-.027c.027-.015.055-.028.083-.042s.083-.04.126-.059c.02-.01.041-.019.062-.027s.071-.029.107-.044l.008,0c.042-.016.083-.031.126-.045l.02-.007c.042-.015.084-.028.126-.041a3.708,3.708,0,0,1,1.055-.151l5.1.007a33.484,33.484,0,0,0-.165,5.467q0,.331.028.652Z" transform="translate(-701.471 -962.856)" fill="#2ea70d"></path>
    <path id="Path_20464" data-name="Path 20464" d="M1288.786,1686.833a3.732,3.732,0,0,0-3.615-2.873l-5.561-.007h0a33.694,33.694,0,0,0-.1,6.43l5.56.007a3.729,3.729,0,0,0,3.719-3.557" transform="translate(-758.988 -962.901)" fill="#f2f7f9"></path>
    <path id="Path_20467" data-name="Path 20467" d="M1326.821,1712.256h-.867l-.031-.315c-.023-.23-.044-.461-.062-.691q-.04-.48-.063-.962a33.5,33.5,0,0,1,.165-5.467h.866a33.643,33.643,0,0,0-.1,6.43q.026.346.061.691Z" transform="translate(-798.982 -980.904)" fill="#e2e2ea"></path>
    <path id="Path_20482" data-name="Path 20482" d="M1278.326,1707.194l-.094.044c.031-.016.062-.03.094-.044" transform="translate(-757.979 -982.954)" fill="#e2e2ea"></path>
    <path id="Path_20483" data-name="Path 20483" d="M1277.1,1707.984l.01-.005-.034.019.024-.013" transform="translate(-756.982 -983.631)" fill="#e2e2ea"></path>
    <path id="Path_20484" data-name="Path 20484" d="M1281.726,1705.93l-.084.027.084-.027" transform="translate(-760.921 -981.863)" fill="#e2e2ea"></path>
    <path id="Path_20485" data-name="Path 20485" d="M1279.319,1706.8l.038-.017.042-.017-.08.034" transform="translate(-758.917 -982.583)" fill="#e2e2ea"></path>
    <path id="Path_20487" data-name="Path 20487" d="M1285.7,1705.057l-.072.012.072-.012" transform="translate(-764.357 -981.11)" fill="#e2e2ea"></path>
    <path id="Path_20488" data-name="Path 20488" d="M1287.261,1704.873l-.081.007.081-.007" transform="translate(-765.7 -980.951)" fill="#e2e2ea"></path>
    <path id="Path_20489" data-name="Path 20489" d="M1284.522,1705.262l-.068.014.068-.014" transform="translate(-763.348 -981.287)" fill="#e2e2ea"></path>
    <path id="Path_20490" data-name="Path 20490" d="M1275.938,1708.64l.036-.022-.036.022" transform="translate(-756 -984.182)" fill="#e2e2ea"></path>
    <path id="Path_20491" data-name="Path 20491" d="M1274.3,1709.287c.045-.032.09-.063.136-.094-.046.03-.092.062-.136.094" transform="translate(-754.584 -984.679)" fill="#e2e2ea"></path>
    <path id="Path_20492" data-name="Path 20492" d="M1273.6,1710.1l.062-.047-.062.047" transform="translate(-753.986 -985.418)" fill="#e2e2ea"></path>
    <path id="Path_20493" data-name="Path 20493" d="M1280.7,1706.271l-.082.029.082-.029" transform="translate(-760.041 -982.157)" fill="#e2e2ea"></path>
    <path id="Path_20494" data-name="Path 20494" d="M1283.285,1705.571l-.043.011.043-.011" transform="translate(-762.302 -981.553)" fill="#e2e2ea"></path>
    <path id="Path_20495" data-name="Path 20495" d="M1272.695,1710.765l.07-.057-.07.057" transform="translate(-753.202 -985.985)" fill="#e2e2ea"></path>
    <path id="Path_20506" data-name="Path 20506" d="M1288.451,1704.795l-.085,0,.085,0" transform="translate(-766.723 -980.884)" fill="#e2e2ea"></path>
    <path id="Path_20523" data-name="Path 20523" d="M1326.729,1711.25h-.867q-.04-.48-.063-.962a33.5,33.5,0,0,1,.165-5.467h.866a33.643,33.643,0,0,0-.1,6.43" transform="translate(-798.982 -980.904)" fill="#fff"></path>
    <path id="Path_20524" data-name="Path 20524" d="M1332.272,1712.26l5.561.007a3.718,3.718,0,0,0,.01-7.436l-5.561-.007a33.715,33.715,0,0,0-.041,7.121Z" transform="translate(-804.432 -980.909)" fill="#e0e1e2"></path>
    <path id="Path_20525" data-name="Path 20525" d="M1271.792,1712.214l-5.1-.007a3.733,3.733,0,0,1-3.562-2.671,3.7,3.7,0,0,1,.238-2.7l.044-.085.042-.076.008-.014c.014-.027.029-.052.044-.077l.051-.082c.012-.019.024-.038.037-.057s.02-.029.03-.044.026-.038.039-.057.037-.052.056-.078l.044-.058.03-.038.044-.053.062-.073.052-.058.034-.037.043-.046c.053-.054.108-.108.163-.158.032-.029.065-.058.1-.087s.077-.064.116-.094.069-.053.1-.079c.06-.043.12-.085.182-.125.02-.013.041-.027.062-.039l.085-.052c.033-.019.066-.038.1-.055l.051-.027c.027-.015.055-.028.083-.042s.084-.04.126-.059c.021-.009.041-.019.062-.027s.07-.029.107-.044l.008,0c.042-.016.084-.032.126-.045l.02-.007c.042-.015.084-.028.127-.041a3.711,3.711,0,0,1,1.055-.151l5.1.007a33.487,33.487,0,0,0-.165,5.467c.027.552.069,1.1.124,1.654Z" transform="translate(-744.819 -980.863)" fill="#189488"></path>
    <path id="Path_20526" data-name="Path 20526" d="M1273.794,1711.212l-4.852-.006a3.576,3.576,0,0,1-3.374-2.622,3.865,3.865,0,0,1-.157-1.1,3.911,3.911,0,0,1,.055-.644l.044-.085.042-.076.008-.014c.014-.027.029-.052.044-.077s.034-.055.051-.082.024-.038.037-.058.02-.029.03-.044.026-.038.039-.057l.056-.078.044-.058.03-.038.044-.053.062-.073.052-.058.034-.037.043-.046c.053-.054.108-.108.163-.158.032-.029.065-.058.1-.087s.077-.064.116-.094.069-.053.1-.079c.059-.043.119-.085.182-.125.02-.013.041-.027.062-.039l.085-.052c.033-.019.066-.038.1-.055l.051-.027c.027-.015.055-.028.083-.042s.084-.04.126-.059c.021-.009.041-.019.062-.027s.071-.029.107-.044l.008,0c.042-.016.084-.031.126-.045l.02-.007c.042-.015.084-.028.127-.041a3.71,3.71,0,0,1,1.055-.151l5.1.007a33.486,33.486,0,0,0-.165,5.467q0,.331.028.652Z" transform="translate(-746.917 -980.863)" fill="#2ea70d"></path>
    <path id="Path_20527" data-name="Path 20527" d="M1341.46,1707.7a3.732,3.732,0,0,0-3.614-2.873l-5.561-.007a33.726,33.726,0,0,0-.1,6.43l5.56.007a3.729,3.729,0,0,0,3.719-3.557" transform="translate(-804.435 -980.908)" fill="#f2f7f9"></path>
    <path id="Path_20530" data-name="Path 20530" d="M1816.491,1707.8h-.867l-.031-.315q-.035-.345-.062-.691-.04-.48-.063-.962a33.528,33.528,0,0,1,.165-5.467h.866a33.643,33.643,0,0,0-.1,6.43q.026.346.061.691Z" transform="translate(-1221.465 -977.056)" fill="#e2e2ea"></path>
    <path id="Path_20534" data-name="Path 20534" d="M1757.935,1711.059l-.038.051.021-.028.018-.023" transform="translate(-1171.831 -986.288)" fill="#e2e2ea"></path>
    <path id="Path_20536" data-name="Path 20536" d="M1758.82,1710.017l-.03.036.016-.019.014-.017" transform="translate(-1172.601 -985.389)" fill="#e2e2ea"></path>
    <path id="Path_20537" data-name="Path 20537" d="M1760.415,1707.579c.048-.049.1-.1.146-.142-.05.046-.1.093-.146.142" transform="translate(-1174.003 -983.163)" fill="#e2e2ea"></path>
    <path id="Path_20538" data-name="Path 20538" d="M1759.679,1709.143l-.015.016.01-.011.005-.006" transform="translate(-1173.355 -984.635)" fill="#e2e2ea"></path>
    <path id="Path_20545" data-name="Path 20545" d="M1768,1702.734l-.094.044c.031-.015.062-.03.094-.044" transform="translate(-1180.464 -979.105)" fill="#e2e2ea"></path>
    <path id="Path_20546" data-name="Path 20546" d="M1766.77,1703.525l.01-.005-.034.019.024-.013" transform="translate(-1179.466 -979.784)" fill="#e2e2ea"></path>
    <path id="Path_20547" data-name="Path 20547" d="M1771.4,1701.47l-.084.027.084-.027" transform="translate(-1183.405 -978.015)" fill="#e2e2ea"></path>
    <path id="Path_20548" data-name="Path 20548" d="M1768.99,1702.34l.038-.017.042-.017-.08.034" transform="translate(-1181.401 -978.736)" fill="#e2e2ea"></path>
    <path id="Path_20550" data-name="Path 20550" d="M1775.366,1700.6l-.072.012.072-.012" transform="translate(-1186.841 -977.262)" fill="#e2e2ea"></path>
    <path id="Path_20551" data-name="Path 20551" d="M1776.931,1700.413l-.081.007.081-.007" transform="translate(-1188.183 -977.103)" fill="#e2e2ea"></path>
    <path id="Path_20552" data-name="Path 20552" d="M1774.193,1700.8l-.068.014.068-.014" transform="translate(-1185.832 -977.438)" fill="#e2e2ea"></path>
    <path id="Path_20553" data-name="Path 20553" d="M1765.609,1704.181l.036-.022-.036.022" transform="translate(-1178.484 -980.335)" fill="#e2e2ea"></path>
    <path id="Path_20554" data-name="Path 20554" d="M1763.968,1704.828q.067-.048.136-.094-.069.046-.136.094" transform="translate(-1177.068 -980.831)" fill="#e2e2ea"></path>
    <path id="Path_20555" data-name="Path 20555" d="M1763.275,1705.638l.061-.047-.061.047" transform="translate(-1176.471 -981.57)" fill="#e2e2ea"></path>
    <path id="Path_20556" data-name="Path 20556" d="M1770.374,1701.811l-.082.029.082-.029" transform="translate(-1182.525 -978.309)" fill="#e2e2ea"></path>
    <path id="Path_20557" data-name="Path 20557" d="M1772.955,1701.111l-.042.011.042-.011" transform="translate(-1184.786 -977.705)" fill="#e2e2ea"></path>
    <path id="Path_20558" data-name="Path 20558" d="M1762.365,1706.306l.07-.057-.07.057" transform="translate(-1175.686 -982.138)" fill="#e2e2ea"></path>
    <path id="Path_20559" data-name="Path 20559" d="M1761.489,1707.169l.047-.041-.047.041" transform="translate(-1174.93 -982.897)" fill="#e2e2ea"></path>
    <path id="Path_20569" data-name="Path 20569" d="M1778.121,1700.335l-.085,0,.085,0" transform="translate(-1189.207 -977.036)" fill="#e2e2ea"></path>
    <path id="Path_20586" data-name="Path 20586" d="M1816.4,1706.79h-.867q-.04-.48-.063-.962a33.528,33.528,0,0,1,.165-5.467h.866a33.643,33.643,0,0,0-.1,6.43" transform="translate(-1221.465 -977.056)" fill="#fff"></path>
    <path id="Path_20587" data-name="Path 20587" d="M1821.943,1707.8l5.561.007a3.718,3.718,0,0,0,.01-7.436l-5.561-.007a33.708,33.708,0,0,0-.041,7.121Z" transform="translate(-1226.916 -977.061)" fill="#e0e1e2"></path>
    <path id="Path_20588" data-name="Path 20588" d="M1761.462,1707.754l-5.1-.007a3.733,3.733,0,0,1-3.562-2.671,3.7,3.7,0,0,1,.238-2.7l.044-.085.042-.076.008-.014c.015-.027.03-.052.044-.077l.051-.082c.012-.019.024-.038.037-.057s.02-.029.03-.044.026-.038.039-.056.037-.052.056-.078l.044-.058.03-.038.044-.053.062-.073.052-.058.034-.037.044-.046c.053-.054.108-.108.163-.158l.1-.087c.038-.032.077-.064.116-.094s.069-.053.1-.079c.059-.043.119-.085.182-.125.02-.013.041-.027.063-.039l.085-.052c.033-.019.066-.038.1-.055l.051-.027c.027-.015.055-.028.083-.042s.084-.04.126-.059c.02-.009.041-.019.062-.027s.071-.029.107-.044l.008,0c.042-.016.084-.032.126-.045l.02-.007c.042-.015.084-.028.127-.041a3.709,3.709,0,0,1,1.055-.151l5.1.007a33.5,33.5,0,0,0-.165,5.467q.041.828.124,1.654Z" transform="translate(-1167.303 -977.015)" fill="#189488"></path>
    <path id="Path_20589" data-name="Path 20589" d="M1763.464,1706.752l-4.852-.006a3.576,3.576,0,0,1-3.373-2.621,3.87,3.87,0,0,1-.158-1.1,3.912,3.912,0,0,1,.055-.644c.014-.028.029-.057.044-.085l.042-.076.008-.014c.014-.027.029-.052.044-.077l.051-.082c.011-.019.024-.038.037-.058l.03-.044c.013-.019.026-.038.039-.056s.037-.052.056-.078l.044-.058.03-.038.044-.053.062-.073.052-.058.034-.037.043-.046c.053-.054.108-.108.163-.158l.1-.087c.038-.032.077-.064.116-.094s.069-.053.1-.079c.059-.043.119-.085.182-.125.02-.013.041-.027.063-.039l.085-.052c.033-.019.066-.038.1-.055l.051-.027c.027-.015.055-.028.083-.042s.084-.04.127-.059c.02-.009.041-.019.062-.027s.07-.029.107-.044l.008,0c.042-.016.083-.032.126-.045l.021-.007c.042-.015.084-.028.127-.041a3.711,3.711,0,0,1,1.055-.151l5.1.007a33.513,33.513,0,0,0-.165,5.467q0,.331.028.652Z" transform="translate(-1169.401 -977.015)" fill="#2ea70d"></path>
    <path id="Path_20590" data-name="Path 20590" d="M1831.131,1703.244a3.732,3.732,0,0,0-3.615-2.873l-5.561-.007a33.686,33.686,0,0,0-.1,6.43l5.56.007a3.73,3.73,0,0,0,3.719-3.557" transform="translate(-1226.918 -977.061)" fill="#f2f7f9"></path>
    <rect id="Rectangle_5960" data-name="Rectangle 5960" width="377.192" height="243.248" transform="translate(344.869 490)" fill="none"></rect>
    <rect id="Rectangle_5961" data-name="Rectangle 5961" width="377.193" height="243.248" transform="translate(344.869 490)" fill="none"></rect>
    <g id="Group_14315" data-name="Group 14315" transform="translate(433.351 578.464)">
      <g id="Group_14314" data-name="Group 14314">
        <g id="Group_14313" data-name="Group 14313" clip-path="url(#clip-path-3)">
          <path id="Path_20360" data-name="Path 20360" d="M1797.518,957.616h-7.663a.974.974,0,0,1,0-1.948h7.663a.974.974,0,1,1,0,1.948" transform="translate(-1788.881 -955.61)" fill="#c4c4c4"></path>
          <path id="Path_20361" data-name="Path 20361" d="M1796.224,987.389h-6.37a.974.974,0,0,1,0-1.948h6.37a.974.974,0,1,1,0,1.948" transform="translate(-1788.88 -981.298)" fill="#c4c4c4"></path>
          <path id="Path_20362" data-name="Path 20362" d="M1873.126,957.616H1868.6a.974.974,0,0,1,0-1.948h4.524a.974.974,0,0,1,0,1.948" transform="translate(-1856.824 -955.61)" fill="#c4c4c4"></path>
          <path id="Path_20363" data-name="Path 20363" d="M2017.947,957.616h-5.764a.974.974,0,1,1,0-1.948h5.764a.974.974,0,1,1,0,1.948" transform="translate(-1980.703 -955.61)" fill="#c4c4c4"></path>
          <path id="Path_20364" data-name="Path 20364" d="M1935.442,957.193h-8.3a.974.974,0,1,1,0-1.948h8.3a.974.974,0,0,1,0,1.948" transform="translate(-1907.331 -955.245)" fill="#c4c4c4"></path>
          <path id="Path_20365" data-name="Path 20365" d="M1878.326,987.389H1868.6a.974.974,0,1,1,0-1.948h9.724a.974.974,0,1,1,0,1.948" transform="translate(-1856.823 -981.298)" fill="#c4c4c4"></path>
          <path id="Path_20366" data-name="Path 20366" d="M1977.391,987.389h-9.724a.974.974,0,1,1,0-1.948h9.724a.974.974,0,1,1,0,1.948" transform="translate(-1942.296 -981.298)" fill="#c4c4c4"></path>
        </g>
      </g>
    </g>
    <rect id="Rectangle_5951" data-name="Rectangle 5951" width="6.654" height="6.654" transform="translate(490.301 579.25)" fill="#e0e1e2"></rect>
  </g>
</svg>
