<?xml version="1.0" standalone="no"?>
<!DOCTYPE svg PUBLIC "-//W3C//DTD SVG 20010904//EN"
 "http://www.w3.org/TR/2001/REC-SVG-20010904/DTD/svg10.dtd">
<svg version="1.0" xmlns="http://www.w3.org/2000/svg"
 width="501.000000pt" height="501.000000pt" viewBox="0 0 501.000000 501.000000"
 preserveAspectRatio="xMidYMid meet">
<metadata>
Created by potrace 1.14, written by Peter Selinger 2001-2017
</metadata>
<g transform="translate(0.000000,501.000000) scale(0.100000,-0.100000)"
fill="#000000" stroke="none">
<path d="M2467 4638 c-137 -29 -233 -173 -207 -310 11 -56 40 -115 69 -142 12
-11 21 -30 21 -43 0 -22 -3 -24 -32 -20 -57 9 -184 54 -248 88 -83 44 -149
114 -217 228 -98 167 -136 193 -295 194 -109 1 -349 -14 -423 -27 -16 -3 -48
-8 -70 -11 -22 -4 -57 -11 -77 -16 -20 -5 -139 -8 -265 -7 -255 2 -300 -3
-337 -37 -30 -28 -32 -44 -10 -91 32 -67 139 -122 299 -155 l60 -12 -45 -12
c-69 -18 -121 -46 -130 -69 -31 -85 106 -147 316 -142 l112 3 -51 -26 c-28
-14 -60 -39 -71 -54 -19 -26 -19 -30 -6 -54 30 -54 73 -68 201 -68 l116 1 -30
-21 c-47 -32 -69 -67 -61 -99 22 -89 238 -79 422 20 35 19 68 34 73 32 5 -2
-15 -28 -44 -58 -81 -83 -127 -148 -127 -179 0 -44 31 -64 100 -64 77 0 180
49 268 128 34 31 62 54 62 50 0 -3 -27 -58 -61 -123 -68 -131 -76 -174 -39
-204 55 -44 148 -5 257 108 l72 76 -6 -65 c-8 -88 0 -114 37 -122 34 -8 86 19
120 62 l20 26 25 -27 c37 -40 87 -32 132 22 12 14 24 24 26 22 3 -3 7 -136 11
-296 l6 -290 -63 7 c-152 17 -185 22 -242 36 -88 22 -117 40 -144 92 -25 46
-16 49 169 67 71 7 134 33 150 63 29 55 -3 115 -77 147 -42 18 -202 25 -263
11 -49 -11 -156 -72 -185 -105 -87 -98 -65 -234 56 -352 62 -61 114 -91 203
-116 l60 -17 -25 -18 c-49 -39 -109 -105 -125 -138 -71 -149 26 -317 244 -423
45 -22 82 -42 82 -44 0 -3 -16 -18 -35 -35 -44 -39 -86 -126 -90 -184 -7 -103
40 -179 174 -288 l22 -17 -26 -34 c-31 -40 -40 -73 -39 -141 1 -58 18 -96 68
-147 l36 -37 -25 -37 c-45 -67 -45 -137 0 -206 l25 -37 -25 -47 c-40 -76 -30
-155 28 -216 l25 -27 -19 -38 c-32 -63 -19 -133 34 -182 14 -13 23 -29 21 -36
-3 -7 3 -16 13 -19 10 -3 23 -21 28 -39 8 -25 15 -32 35 -32 20 0 26 6 28 30
2 17 9 36 15 44 7 7 12 19 12 27 0 7 10 24 22 37 12 14 26 34 32 45 17 32 13
104 -8 138 l-19 31 29 43 c29 44 33 57 29 120 -2 40 -13 65 -43 98 l-21 22 21
28 c57 77 68 148 33 217 l-20 38 43 42 c100 97 106 199 16 291 l-30 31 48 32
c144 94 187 179 158 311 -9 43 -57 117 -97 149 l-29 23 93 47 c163 81 245 162
268 266 21 92 -11 192 -85 270 -19 21 -34 39 -33 40 2 2 30 10 63 20 142 40
286 153 319 252 42 123 -1 220 -127 285 -60 30 -177 47 -307 45 -94 -2 -124
-6 -163 -24 -75 -35 -94 -105 -44 -160 33 -37 78 -46 277 -59 155 -9 160 -12
119 -52 -55 -54 -130 -82 -314 -116 -41 -8 -141 -20 -170 -20 l-30 -1 4 220
c2 121 5 236 7 255 1 19 3 50 3 69 l1 33 35 -31 c47 -41 97 -43 122 -5 l17 26
20 -23 c56 -65 118 -85 151 -49 16 17 17 30 11 101 l-7 82 38 -50 c79 -105
187 -172 257 -159 38 7 56 30 56 69 0 24 -65 166 -100 217 -19 28 -32 60 -25
60 3 0 17 -13 32 -28 77 -77 206 -149 279 -156 59 -5 103 11 115 41 17 45 6
63 -105 185 -37 40 -63 74 -58 76 5 1 42 -15 83 -37 97 -52 177 -74 269 -75
57 -1 82 3 107 18 54 33 50 76 -13 131 l-34 30 112 0 c101 0 117 2 151 23 71
44 59 107 -29 152 l-50 27 126 -1 c145 -1 225 18 271 64 57 56 29 104 -81 139
-36 11 -58 20 -50 21 56 5 172 41 234 72 88 44 134 116 108 173 -18 38 -89 48
-362 49 -183 1 -268 6 -335 18 -49 9 -116 19 -147 22 -32 3 -82 9 -111 12 -96
10 -311 8 -352 -4 -59 -17 -95 -55 -161 -167 -70 -120 -157 -211 -239 -253
-58 -28 -218 -82 -247 -82 -21 0 -19 39 3 64 47 49 81 155 72 223 -21 155
-173 264 -326 231z m265 -2053 c99 -25 188 -78 216 -130 13 -25 -10 -72 -53
-107 -32 -27 -147 -85 -232 -117 -37 -15 -52 -17 -55 -8 -2 7 -3 55 -2 107 1
52 3 137 3 188 l1 94 33 -7 c17 -3 58 -13 89 -20z m-286 -185 l4 -192 -30 7
c-27 6 -103 40 -188 83 -44 22 -102 79 -102 99 0 50 76 119 177 161 51 22 124
42 132 36 2 -2 5 -89 7 -194z m10 -590 c2 -67 1 -126 -2 -131 -14 -23 -144 92
-144 126 0 12 10 35 21 50 21 26 110 87 117 80 2 -2 5 -58 8 -125z m232 75
c17 -14 34 -35 37 -45 11 -34 -33 -92 -97 -126 l-28 -15 0 121 0 121 29 -15
c16 -9 42 -27 59 -41z m-225 -502 c6 -39 -7 -52 -23 -23 -8 14 -8 26 0 41 14
25 17 23 23 -18z"/>
</g>
</svg>
